<?xml version='1.0' encoding='utf-8'?>
<svg xmlns="http://www.w3.org/2000/svg" width="1077px" height="1077px" version="1.1" viewBox="1 507 1077 1077"> <g fill="#7ec1e0"> <path d="m0.999 506.47c-0.13983 0-0.27394 0.05554-0.37282 0.15442-0.098878 0.09888-0.15443 0.233-0.15443 0.37284l9.9998e-4 1077c2.7e-7 0.2911 0.23606 0.5272 0.52724 0.5272l1077 1e-3c0.1399 0 0.2739-0.0555 0.3728-0.1544s0.1544-0.2329 0.1544-0.3728l-1e-3 -1077c0-0.2912-0.2361-0.52725-0.5272-0.52725l-1077-0.00101z"/> </g> <g fill-opacity=".38824"> <path d="m799.29 1515.3-2.2764 1.3382q-7.1916 1.7954-26.694 3.2647-27.071 1.7652-36.178 2.0205-14.368 0.6124-31.813 1.1433-17.566 0.5303-36.518 0.9176-8.6097 0.2831-59.976 0.8401-42.063 0.3454-89.671 0.1188-22.718-0.1534-43.414-0.4275-11.612-0.0617-57.54-1.0946-35.327-0.9109-62.568-2.3055-60.818-3.3714-50.511-6.9703 4.5307-1.7924 22.428-3.2998 8.9488-0.7537 21.239-1.4363 4.2547-0.3935 43.994-1.8719 66.044-2.179 160.21-2.2276 47.082 0.0697 87.133 0.6653 20.026 0.2979 38.294 0.7271 10.232 0.1324 50.849 1.5836 36.155 1.6256 39.376 2.0322 10.619 0.7285 17.896 1.5248 14.554 1.5928 15.741 3.4573"/> </g> <g fill="#fff"> <path d="m830.24 787.41-17.578 8.9068q-23.494 8.3649-36.953 1.1331-9.534-5.005-17.521-15.526-8.5702-12.496-10.073-18.739-3.808-11.875-2.3636-23.525 0.8686-7.7691 2.9086-15.486 3.132-12.091 6.5624-22.09 1.1094-4.2726 1.2014-5.0771 1.0588-4.2531 0.40113-10.92-0.22016-2.9907-2.7161-11.255-10.883-4.0347-15.16-7.0102-3.7023-2.0256-4.0672-6.6419-0.3395-2.0244 3.1516-8.7922l8.8046-12.359 9.0522-8q20.332-11.019 31.604-6.0352 6.7411 1.9148 22.386 15.125 5.4992 7.745 7.9224 12.882 6.1891 13.692 5.1886 29.438-0.68094 11.728-1.873 17.143-0.02906 1.7404-5.834 24.792-0.79695 3.5413-1.3564 7.0692-1.1821 7.0596-0.65464 14.019 0.539 13.95 16.967 40.946"/> </g> <g fill="#6d220d"> <path d="m634.71 729.73-0.2172 0.5509q-2.6146 6.085-0.74843 9.5552l1.0668 2.509q10.005 9.2732 12.462 14.849 2.9111 5.408 3.6421 18.101l-13.284 16.211-43.426-18.491-2.698-4.4517-5.4266 1.9146q-2.554-2.7132-3.7982-4.3484-3.2022-3.2569-5.3121-13.427l-0.62653-42.6 42.965-32.528q14.73 15.024 16.827 23.832 3.037 8.577-1.4246 28.324"/> </g> <path d="m492.45 582.62c-0.94839 2.4501 4.1888 11.46 9.8791 17.387l5.5323 5.6903-4.1096 1.8178c-16.913 7.7451-26.792 37.699-17.071 51.608 1.8968 2.6871 1.9758 12.803 0.23706 26.555-1.1854 8.9306-1.1854 10.432 3e-5 17.229 0.71131 4.1097 1.9758 9.6421 2.8452 12.329 3.9516 11.855 12.25 25.37 18.494 30.111 3.6355 2.7661 10.195 5.7693 14.226 6.5597l3.0823 0.5532-0.47417 4.4258c-1.0275 9.247-2.213 12.961-5.0582 15.648-1.5016 1.4227-3.1613 2.608-3.7936 2.608-1.8968 0-29.953 10.432-35.565 13.199-17.071 8.4564-22.208 16.755-34.3 54.928-3.9516 12.487-7.9033 24.5-8.7726 26.713-2.7661 6.9549-2.2919 7.9824 4.5049 10.669 0.47415 0.2371-4.821 16.202-5.3743 16.202-1.2645 0-9.8-11.934-9.5629-13.357 0.15806-0.86939-3.6355-7.271-8.7726-14.858l-9.0097-13.356-0.94838-7.9032c-2.213-17.862-4.9001-27.187-8.7727-30.744-2.45-2.2129-8.6936-14.858-8.6936-17.624 0-1.2645 0.39523-4.3468 0.94838-6.7967 1.1065-5.5324 2.292-6.4807 9.642-7.1129 6.7968-0.55323 8.2194-1.6598 6.5597-4.9002-2.1338-4.1096-7.6661-9.642-13.515-13.593-8.8517-5.9275-21.26-9.3258-36.908-10.195-9.0097-0.47426-9.1678-0.39516-10.432 1.4226-1.8178 2.529-1.6597 7.1919 0.23706 9.642 0.86935 1.1062 3.1613 2.608 5.1371 3.3984 4.1097 1.6596 4.0307 1.5806 1.0274 9.958-1.5806 4.4259-1.7387 4.5839-4.5048 4.5839-1.5807 0-3.7146 0.5532-4.663 1.2645-2.371 1.5807-2.371 6.2437-0.07901 8.6937 1.5806 1.6595 1.5806 1.8966 0.39515 3.6354-0.7113 0.94847-1.2645 2.0548-1.2645 2.371 0 0.9484 3.7935 0.7903 5.6113-0.2372 1.2645-0.6322 3.0032-0.23704 8.2194 1.7388 3.7146 1.3436 6.7178 2.8452 6.7178 3.1614 0 0.3951-1.5806 0.7113-3.4774 0.7113-4.4258 0-7.0339 1.9757-7.0339 5.3741 0 1.4228 0.6323 3.2404 1.4226 4.1098 1.4226 1.5016 1.4226 1.5805-0.15808 1.5805-1.8968 0-4.9791 3.1614-4.9791 5.1372 0 0.79027 0.5532 2.0548 1.2645 2.8451 1.1855 1.3435 1.0274 1.5807-1.5807 3.8726-4.7419 4.1889-3.7145 9.326 2.5291 12.566 1.7387 0.94837 1.6597 1.0274-3.8726 7.7453-11.46 13.91-17.387 24.421-22.761 40.228-3.7936 11.065-6.4016 22.682-6.4016 28.61 0 3.7143 0.31613 4.5838 2.3709 6.4806 9.0098 8.4565 52.083 16.36 57.615 10.669 2.45-2.6081 7.1129-18.652 9.8791-34.379 1.0274-5.7694 1.0274-5.8484 1.9758-3.5564 0.55326 1.2646 1.6597 3.0822 2.45 3.9517 0.79032 0.86925 2.9242 5.0581 4.6629 9.2467 17.387 41.808 32.798 61.487 48.052 61.487 5.5323 0 8.7726-1.4228 13.673-6.0066 3.9516-3.7144 11.065-13.514 11.065-15.253 2e-5 -0.47425 0.39527-0.86938 0.79042-0.86938 0.47414 0 0.63222 2.9242 0.3951 8.0613-0.8694 16.676-2.3709 24.421-11.539 60.381-3.0032 11.776-5.6903 23.473-5.9274 26.081-0.55328 4.3468-1.1065 5.3741-9.4049 16.518-4.821 6.4807-21.023 28.373-35.96 48.605s-31.218 42.204-36.197 48.921c-11.065 14.937-12.013 16.439-12.013 19.521 0 5.1369 6.3226 9.4047 10.827 7.2708 2.9242-1.4225 4.3468-3.2402 43.626-56.271 18.889-25.449 34.379-46.234 34.458-46.076 0.31614 0.3161-5.0581 69.944-7.0339 92.231-1.1064 11.934-1.6597 22.05-1.3435 22.366 0.39513 0.3951 4.6629 1.5015 9.4839 2.3709 8.3775 1.6597 8.7726 1.8178 8.7726 3.7145 0 1.1065 0.55323 12.487 1.1065 25.29 0.63223 12.803 1.3435 30.27 1.6597 38.726 0.23713 8.4564 0.63226 16.834 0.79032 18.573 0.47424 5.0581 2.0549 74.765 2.608 118.15l0.55327 39.912 3.8726 1.1853 3.7936 1.1855-0.47424 5.5323c-0.31613 3.0032-0.86936 6.7968-1.1855 8.2985-0.39517 1.5015-0.94834 3.7145-1.1854 4.8999-0.39518 1.5808-1.4226 2.5291-4.1097 3.7146-1.9758 0.9484-7.5871 4.4258-12.408 7.8242-11.46 8.1404-13.198 9.1678-25.448 15.49-12.882 6.7178-14.779 8.4564-15.253 14.068-0.71127 9.168 4.9001 12.25 23.552 13.041 11.46 0.4741 23.789-0.4744 38.331-3.0034 4.742-0.8693 14.779-1.8968 22.129-2.4501 17.229-1.1065 20.232-1.8178 21.102-4.979 1.5016-5.0581-0.94843-33.115-3.2404-37.461-0.63226-1.0275-0.8693-5.7694-0.71124-13.278l0.23704-11.697 4.2678-1.3435c2.371-0.7903 4.6629-1.7388 4.979-2.0549 1.0274-1.0275 3.1613-44.416 6.5598-133.33 1.8177-47.736 3.8725-89.702 4.8209-99.028l0.39524-4.1096h24.184l2.1339 12.013c5.4531 30.19 11.855 66.15 24.974 141.71 7.8242 44.732 14.621 83.617 15.095 86.304l0.86936 4.8999 3.8725 0.7904c2.2129 0.4743 4.742 0.8694 5.6903 0.8694 3.0033 0 3.7146 1.1064 4.8211 7.192 2.0548 10.669 2.3709 17.071 1.0273 19.916-3.2402 6.9549-3.7934 32.72-0.71117 36.829 3.6355 4.979 11.934 6.7967 29.795 6.7177 10.274 0 14.621-0.3161 18.573-1.4225 9.8-2.6872 11.144-4.1098 11.144-11.618 0.07898-5.8484-2.1339-10.669-8.6146-19.126-2.529-3.2405-6.0854-8.2195-7.9822-11.065-3.2404-4.979-3.3983-5.5322-4.8209-16.913-0.8694-6.4016-1.5807-12.092-1.5807-12.566 0-0.3953 1.5807-1.5808 3.5565-2.5291 1.9758-0.9485 3.5564-2.0549 3.5564-2.3711 0-1.9758-4.9791-60.302-6.7177-78.4-3.8727-40.623-5.9275-58.089-11.065-96.025-3.7147-27.424-5.1372-41.966-5.6905-58.168l-0.4741-13.989 2.687-0.5533c9.721-1.9758 13.357-3.0031 14.068-3.8725 0.55322-0.7113 0.39517-4.742-0.71133-13.594-0.86924-6.876-2.608-23.631-3.9515-37.066-1.3436-13.515-3.3194-33.589-4.426-44.654-5.058-51.766-9.3258-70.102-29.558-127.56l-4.1096-11.776v-10.748c0-8.2985 0.47412-13.119 2.0548-21.023 1.1064-5.6902 2.0548-10.432 2.0548-10.669 0-0.23703 1.4226 1.9758 3.1612 4.9 4.1889 6.8758 7.9824 10.906 10.353 10.906 1.5016 0 2.9242 1.6596 7.4291 8.4564 7.1919 10.986 20.706 24.816 28.294 29.084 9.6422 5.2952 19.679 7.3503 25.607 5.0584 2.924-1.1067 6.4015-4.426 8.1402-7.8243 6.5597-12.724 2.0549-40.781-11.697-72.71-3.5565-8.4565-3.7936-9.1678-2.371-9.6421 0.79026-0.31615 1.6597-1.0274 1.8178-1.5806 0.23705-0.55325-2.292-7.4291-5.6113-15.253-3.2404-7.8242-8.7726-21.26-12.25-29.874-3.3984-8.6146-8.1403-19.442-10.511-24.105l-4.3468-8.2984 19.521-26.476c10.748-14.542 26.95-36.434 35.96-48.605 9.0888-12.25 16.676-22.682 16.992-23.078 0.31605-0.47425 1.5806-1.1856 2.8451-1.5806 1.7388-0.63234 5.0581-4.5049 13.04-15.57 5.9274-8.1404 11.064-14.463 11.381-14.147 0.3951 0.3953 1.0273 2.1339 1.4226 3.9517 0.94835 4.4258-0.23713 12.171-3.7146 23.473-6.1646 19.837-6.7968 23.077-7.1919 34.3-0.39526 11.46 0.47414 17.703 3.6355 26.16 2.2129 5.9275 7.508 14.463 9.0888 14.779 1.8967 0.39515 1.5807-0.94849-1.7388-6.0854-4.7419-7.2711-8.0612-18.415-8.6145-28.452-0.5533-10.432 0.7903-18.494 5.6903-34.063 8.0612-25.844 7.7452-33.352-1.7388-43.547-4.2677-4.584-9.642-7.4291-12.566-6.7178-2.0548 0.55324-2.0548 0.47424-1.5807-2.4501 1.7388-9.958 14.463-25.053 26.002-30.586 18.257-8.8515 35.091-3.7145 47.341 14.384 12.566 18.652 14.858 35.96 8.1404 62.594-6.0854 24.342-7.1129 39.595-3.3193 50.976 2.608 7.8242 5.0581 12.013 6.2435 10.828 0.63234-0.63232 0.2372-2.371-1.5806-6.2437-3.3194-7.1919-4.0306-11.065-4.1098-20.469 0-8.2984 1.7388-19.6 5.1372-33.668 4.4257-18.099 5.137-26.713 3.1612-38.015-1.9758-11.618-6.6388-21.576-14.937-32.087-9.958-12.724-23.868-17.703-38.726-13.831-17.071 4.4259-34.3 22.287-35.96 37.303-0.5532 5.3742-0.6323 5.5324-9.4049 17.387-10.906 14.779-12.013 16.518-12.013 19.521 0 1.8968-3.0033 6.4017-13.514 20.548-7.4291 10.037-22.287 30.111-32.957 44.653-10.669 14.542-20.39 27.82-21.734 29.479l-2.292 2.9242-3.0032-3.3984c-1.6596-1.8178-4.742-4.3468-6.7968-5.4533-4.1096-2.2129-24.658-10.511-31.692-12.803-6.4807-2.1339-7.6662-4.5839-10.116-21.418-1.3436-9.2468-1.5017-20.786-0.39515-31.929 0.7903-7.5871 1.0274-8.2194 4.2677-12.961 8.3774-11.934 10.907-20.39 10.986-36.513 0.15796-12.408-1.3436-20.074-5.8484-30.902-6.7968-16.36-22.761-32.64-35.249-36.118-3.8726-1.0274-4.1888-1.5016-1.5016-2.7661 1.0274-0.47427 3.1612-1.9757 4.7418-3.3983 2.7662-2.371 3.1614-2.4501 7.5082-2.0548 13.673 1.4225 25.686 10.748 32.878 25.29 5.2952 10.827 7.4291 21.023 7.508 35.723 0 8.9306 1.5016 16.834 3.8727 21.655 0.94837 1.7387 3.9516 5.6904 6.7178 8.7727 5.9274 6.5596 8.6936 11.46 10.432 18.098 1.5016 5.9274 1.1065 9.7999-2.1339 21.023-1.2645 4.3467-2.2919 8.9306-2.2919 10.116 0 3.7936 2.0548 7.35 7.7451 13.515 9.9582 10.748 12.645 19.995 7.7452 27.345-1.6597 2.5291-1.9758 3.5565-1.2645 4.2678 0.71133 0.6322 1.4226 0.31607 2.8452-1.5017 6.5597-8.1402 3.7934-20.153-7.4291-32.245-6.7969-7.2711-7.7452-9.6419-6.0856-15.569 4.2678-15.411 4.5839-16.913 4.1098-22.999-0.47427-7.7451-3.4774-14.147-9.9582-21.655-9.0098-10.353-11.144-15.253-11.144-25.211 0-9.2468-1.4226-22.603-3.1614-29.321-3.3984-13.752-11.934-26.634-21.813-33.194-5.0582-3.3983-13.673-6.6387-17.466-6.7178-1.4226 0-2.6081-0.31617-2.6081-0.7903 0-0.3951 1.1064-2.292 2.45-4.2678 1.4226-1.9757 2.292-4.0306 2.0549-4.7418-1.0275-2.6871-13.278-2.292-22.445 0.79028-4.979 1.6596-10.274 4.6628-13.515 7.7451-2.3709 2.2129-2.687 2.292-3.3984 1.0275-0.9484-1.6597-5.7693-1.8177-9.4839-0.23703-2.608 1.1064-2.7661 1.0274-5.6113-1.5016-4.0307-3.7146-7.8242-5.4534-15.648-7.3501-10.353-2.5292-14.937-2.9242-15.49-1.4226zm13.436 3.6355c8.2984 1.8177 12.724 3.8727 15.886 7.1129 1.7388 1.8179 2.055 2.6082 1.3435 3.3194-0.71123 0.71119-1.6597 0.31605-4.1096-1.6598-1.7388-1.4226-3.5564-2.2919-3.9516-2.0548-1.3436 0.79029 0.55325 3.3983 3.9516 5.2952 1.7387 1.0275 3.1613 2.213 3.1613 2.7663 0 0.47414 0.2371 1.4225 0.4742 2.1338 0.39515 1.1066-0.3951 1.2646-5.4532 1.2646-5.6903 0-6.0065-0.079-10.037-3.3194-3.7145-2.9242-11.855-13.831-11.855-15.728 0-1.1064 2.8452-0.7903 10.59 0.8694zm67.573 0.94834c-3.4774 5.1371-9.8791 10.986-14.068 13.04-3.3984 1.6596-5.7693 2.2129-11.144 2.45-10.116 0.47424-10.748 0.0791-4.979-2.8451 5.058-2.608 6.1645-3.6355 5.3741-4.9-0.3161-0.47426-2.0548 0.07896-4.4258 1.2645-2.1339 1.1854-4.1097 1.8967-4.3468 1.6597-0.71131-0.6322 5.8484-5.7694 10.669-8.3775 5.7693-3.0823 12.329-4.6628 19.284-4.742l5.3742-0.079-1.7388 2.529zm-36.829 9.0888c0.63224 3.3983-0.23714 6.4807-2.45 8.1404-3.2403 2.6081-6.6388 1.9758-8.5356-1.6597-1.5806-3.0824-0.39521-5.1372 3.8726-7.1129 4.7419-2.1339 6.5597-1.9758 7.1129 0.6322zm26.792 10.59c16.044 5.3742 30.507 22.366 36.671 43.152 3.5564 11.855 3.4774 29.084-0.07906 41.097-2.529 8.3774-17.466 27.898-21.418 27.898-0.7903 0-1.1065-1.0274-1.1065-3.3983 0-3.3193 0.07896-3.3984 3.4774-4.2678 6.7178-1.8178 15.728-14.147 16.834-22.92 0.7113-6.2435-0.2371-9.563-3.7936-13.04-1.6597-1.6595-3.0823-3.7936-3.0823-4.6628 0-2.371-4.3468-14.858-7.508-21.813-6.0065-12.961-18.178-27.898-28.215-34.458-2.529-1.6597-6.9548-3.8726-9.879-4.979-2.9242-1.0275-5.9274-2.2129-6.5597-2.5291-0.6323-0.23716 1.5016-0.7113 4.7419-0.94834 11.697-0.94836 14.937-0.79041 19.916 0.86938zm-37.066 1.1063c2.529 0.63233 5.9275 1.1855 7.5082 1.1855 4.0306 0.079 12.329 3.0033 17.861 6.3226 13.435 8.1402 26.555 25.606 33.194 44.179 1.7386 4.8209 2.0548 6.6387 1.5807 10.274-0.39525 3.7143-0.86939 4.7419-2.6082 5.8484-1.1064 0.71131-2.6871 1.7386-3.4774 2.2919-1.2646 0.86937-1.8968 0.55323-4.9-2.7661-1.8968-2.0548-4.0306-5.4532-4.742-7.5082-2.4499-6.9547-2.608-7.1129-5.2952-7.666-3.5564-0.7904-12.882-5.1371-18.098-8.4565-10.353-6.6388-21.734-19.837-24.105-28.057-0.6323-2.2919-1.5017-4.3467-1.8968-4.5839-1.2645-0.79028-9.1678 1.2645-13.91 3.5565-5.7694 2.7661-10.432 7.587-13.594 13.989-2.8451 5.6113-5.6903 13.989-5.6903 16.755 0 1.5807-0.2371 1.7388-0.9484 1.0274-0.71128-0.7113-1.0274-3.8725-1.0274-9.8791 0-10.274 1.7387-16.281 6.6387-23.473 8.1403-11.855 20.232-16.518 33.51-13.04zm-5.7693 15.49c0 2.9242 5.3742 12.013 10.432 17.703 8.3775 9.2468 21.734 17.94 32.008 21.023 3.0033 0.86936 3.3984 1.2645 4.584 4.9 1.7386 5.295 5.2951 10.353 9.2467 13.198l3.2403 2.3708 3.0033-2.7661c3.8726-3.4774 7.4291-3.7145 10.274-0.7113 1.5806 1.6596 1.8967 2.7661 1.8176 6.6388-0.07893 6.3227-3.5563 13.436-9.3257 18.81-3.7936 3.5564-4.742 4.1096-7.5081 4.1096h-3.2403v18.889c0 26.792 1.7386 35.565 8.4565 41.65l2.7661 2.5291-4.2678 4.9791c-5.7694 6.7968-15.806 15.332-23.394 19.916-19.995 12.092-37.936 10.037-43.231-5.0581-2.371-6.6387-1.0275-11.46 4.0306-15.016 1.8968-1.2645 4.1887-3.7144 4.9791-5.2951 1.7387-3.3984 3.2403-10.748 3.2404-15.648v-3.3983l4.5838-0.86924c6.4807-1.3436 16.281-6.3228 22.524-11.381 2.9242-2.4498 5.2952-4.8209 5.2952-5.216 0-2.0548-2.0548-1.2645-6.4807 2.529-13.277 11.223-26.555 14.542-37.461 9.4049-17.071-8.0614-30.19-38.41-26.397-61.329 0.39515-2.6081 1.0274-8.5356 1.2645-13.198l0.5532-8.5356 3.3194-1.5805c3.8726-1.8969 6.5597-1.9759 10.353-0.39526 5.2162 2.1339 6.0065-0.7113 1.0275-3.4774-3.9517-2.2129-9.0887-1.9757-12.645 0.6323-1.1855 0.94837-2.45 1.6597-2.6872 1.6597-0.79025 0-0.39511-6.0856 0.79038-10.669 2.6871-10.432 9.1678-20.785 14.937-23.947 3.7936-2.0548 9.3259-3.9515 11.776-4.0306 1.6597-0.07896 2.1339 0.31614 2.1339 1.5807zm222.79 42.915c1.9759 1.0275 8.7727 7.8242 8.7727 8.7726 0 0.1581-5.2162 7.3501-11.539 15.886l-11.539 15.49-2.055-1.9758c-3.0822-2.8452-7.3499-5.2952-9.4048-5.2952-4.5049 0-3.4775-2.134 9.8789-19.995 10.986-14.779 11.46-15.174 15.886-12.882zm-20.706 38.094c1.5017 1.1064 2.608 2.3709 2.4501 2.7661-0.2372 0.71116-25.053 34.458-69.628 94.681-14.7 19.837-27.345 36.908-28.136 38.015l-1.4227 1.9758-4.2677-3.5564c-2.371-1.8969-4.4259-3.5566-4.5839-3.7146-0.23718-0.158 0.39506-1.0276 1.2645-2.0549 0.8693-0.9485 15.411-20.628 32.245-43.626 16.913-23.078 38.331-52.161 47.657-64.649 16.676-22.366 17.071-22.84 19.363-22.366 1.3435 0.23704 3.6354 1.4225 5.058 2.529zm-135.7 22.208c-0.94836 10.986-0.23703 22.761 2.0548 33.826 1.1856 5.7693 1.1856 6.0855-0.15794 7.1129-1.8969 1.3435-3.7146 0.39496-6.2437-3.3984-3.0822-4.663-4.3468-11.855-4.8999-27.187l-0.47427-13.989 2.6081-1.4225c1.4226-0.7904 3.7146-2.3711 5.0581-3.5565 1.3435-1.1065 2.608-1.9759 2.6872-1.8178 0.15808 0.1581-0.07911 4.821-0.63233 10.432zm-227.14 32.719c0.23706 0.47424-0.15808 3.0033-0.94836 5.6113-1.2646 4.4258-1.5017 4.6629-3.3984 4.1886-3.6355-0.86925-7.192-4.1886-7.192-6.6386 0-1.1855 0.39517-2.529 0.9484-3.0824 1.1855-1.1854 9.8001-1.2645 10.59-0.07898zm16.518 2.3711c10.195 2.45 17.308 6.4016 23.947 13.04 3.0823 3.2403 5.6904 6.1645 5.6904 6.5597 0 0.39526-2.371 0.94836-5.2952 1.2645-6.3226 0.5532-8.9306 1.6598-10.353 4.5049-0.94838 2.0548-1.0274 2.0548-8.5355 1.7388l-7.5081-0.31615-2.7661-5.4533c-1.8177-3.6355-4.1887-6.8758-7.0339-9.4049l-4.2678-3.8726 1.6597-5.2951 1.5807-5.295 3.3194 0.4741c1.7387 0.2371 6.0855 1.1854 9.5629 2.055zm216.79 10.827 1.8968 1.4226-5.2162 8.5355c-9.2468 14.937-14.937 27.108-21.023 45.128l-3.7934 11.064-3.0823-0.079c-1.6597-0.07897-17.15-0.395-34.379-0.7113-29.321-0.6322-31.455-0.7113-31.455-2.0548-6e-5 -4.505 8.6145-32.324 13.119-42.362 1.9758-4.4258 2.0548-4.5048 2.9242-2.608 0.47414 1.1063 1.3435 3.1614 1.9758 4.5838 0.63225 1.4226 2.9242 4.1096 5.058 6.0855 7.9033 7.1129 18.177 7.7452 32.245 2.0548 10.669-4.3467 27.582-17.782 34.774-27.661 1.8968-2.608 3.8726-4.821 4.3468-4.821 0.39515 0 1.6596 0.7113 2.608 1.4226zm-230.54 3.0032 1.8968 1.9758-2.6081 5.0581c-2.45 4.5839-11.302 15.411-12.724 15.411-0.31612 0 0.94838-3.0033 2.7661-6.6388 1.8178-3.7145 4.1888-9.2468 5.1372-12.25 1.0274-3.0823 2.2129-5.6114 2.6871-5.6114 0.47425 0 1.7388 0.94835 2.8452 2.0548zm240.1 1.9758c2.6871 0.9485 5.1371 2.1339 5.2951 2.608 0.23716 0.55336-3.7936 9.484-8.9306 19.916-13.436 27.187-17.071 38.173-18.178 54.058-0.23704 3.7146-0.94834 7.6662-1.5016 8.8518-1.8177 3.4773-1.3435 6.6386 1.2645 9.5627l2.371 2.7662-5.7694 7.7452c-3.1612 4.3467-12.171 16.518-20.074 27.187-7.8243 10.669-28.926 39.121-46.787 63.226s-37.066 50.028-42.598 57.536c-5.5323 7.5082-10.116 13.12-10.274 12.566-0.15802-0.6323 2.6081-12.487 6.1646-26.318 8.0613-31.85 10.274-43.468 10.827-57.615 0.6323-16.281-2.0548-33.826-7.9823-52.082-7.1129-21.892-5.9275-34.379 5.2162-58.563 4.821-10.432 9.642-21.892 18.098-43.468 2.6081-6.5597 5.8484-14.068 7.1919-16.755 2.5291-4.9 2.6081-4.979 8.7726-7.3501 3.3984-1.2646 6.4807-2.371 6.8759-2.371 0.3161 0-1.2645 3.7936-3.6355 8.4566-6.5597 13.356-17.229 47.657-15.806 51.213 0.23712 0.7113 8.4565 1.1066 29.479 1.6598 41.413 0.94835 43.784 0.94835 44.495-0.47426 0.3952-0.6322 2.4499-6.5597 4.7418-13.04 2.292-6.5597 5.8484-15.727 7.9823-20.39 3.5565-7.9824 16.36-30.507 17.387-30.586 0.2372 0 2.6082 0.79026 5.3743 1.6596zm-232.67 8.1404c1.3435 3.0823 1.5807 7.587 0.47419 7.587-0.39518 0-2.6871-0.94824-5.1371-2.0548l-4.5048-2.0548 1.8177-2.8451c4.2678-7.1129 3.8726-6.7179 5.1371-4.9791 0.63225 0.94836 1.5807 2.8451 2.2129 4.3468zm252.27-0.55322c9.2468 3.7936 16.123 8.6145 17.229 12.171 0.39514 1.1854-2.608 5.7693-12.171 18.889l-12.724 17.308-2.2129-1.1854c-2.8452-1.4227-6.0064-1.4227-9.0887 0.23706-3.1612 1.5806-12.408 10.828-15.016 14.937-1.0275 1.7388-2.529 3.6355-3.3193 4.2677-1.3435 1.1064-1.4226 0.9485-0.86936-3.7935 0.7113-6.3226 3.6354-16.518 7.2709-25.369 4.742-11.539 19.6-41.176 20.707-41.176 0.5532 0 5.1371 1.6598 10.195 3.7146zm-127.01 0.63235c0 0.23703-0.71127 1.8967-1.6597 3.7144-0.9484 1.8178-3.3984 7.7451-5.5323 13.198-9.0887 23.789-18.652 45.918-19.758 45.918-0.63226 0 1.9758-10.353 3.2404-12.724 1.1064-2.0548 0.94833-3.8726-0.31619-3.8726-1.9758 0-5.2952 11.065-6.4016 20.944-0.23716 2.6081-1.5017 8.4564-2.7662 13.04-1.2645 4.584-2.45 10.59-2.6871 13.436-0.15804 2.8451-0.6323 5.0581-1.0274 4.979-1.5016-0.39514-19.205-7.9032-19.6-8.2983-0.23714-0.23706 0.39514-2.7661 1.5016-5.6905 1.1065-2.8451 5.0581-14.937 8.7726-26.792 8.2194-25.765 10.353-31.139 15.49-38.41 5.8484-8.2985 12.645-13.278 24.816-17.94 5.0581-1.8969 5.9274-2.1339 5.9274-1.5016zm-144.63 2.2918c0 0.23716-0.7903 1.6597-1.6597 3.2404-1.3436 2.2129-1.8968 2.608-2.7661 1.8967-1.5016-1.2645-1.3436-3.6354 0.31614-4.5838 1.3435-0.86926 4.1096-1.1856 4.1096-0.55322zm36.276 4.1098c1.7387 0.3951 1.8178 0.6323 1.4226 4.4259-0.31613 2.2128-0.6322 4.1096-0.79031 4.2676-0.15802 0.15808-2.9242-0.55322-6.0855-1.6596-3.1613-1.1064-6.4016-1.9759-7.113-1.9759-0.94835 0-1.1854-0.63207-0.94835-2.6871 0.31613-2.4498 0.63225-2.7661 2.8452-3.0821 2.5291-0.3162 7.271 0 10.669 0.7113zm-21.576 1.9758c4.5839 2.1338 6.4016 3.8726 4.1887 3.8726-0.47418 0-1.8178 1.0273-3.0823 2.3709l-2.2129 2.371-4.979-2.0548c-2.7662-1.1066-5.2162-2.213-5.3743-2.3711-0.39513-0.395 4.9001-6.4806 5.7694-6.5597 0.31613-0.07896 2.9242 1.0276 5.6904 2.3711zm16.518 8.0613c7.5081 2.529 7.9823 2.8452 9.8 6.0065 1.0274 1.8177 1.6597 3.4774 1.5016 3.7145-0.23704 0.15806-3.2403-1.1064-6.7177-2.7661-7.35-3.6355-12.961-5.6113-15.648-5.6113-1.0274 0-2.0549-0.31604-2.292-0.7113-0.7113-1.1064 1.1855-2.2919 5.0581-3.1613 0.23712 0 4.0306 1.1065 8.2984 2.5291zm-2.9242 6.5597c8.7726 3.4775 16.992 7.9032 19.442 10.432 2.7662 3.0033 4.663 9.4049 6.3227 22.366 0.79028 5.3742 1.5016 10.986 1.7387 12.408 0.2371 1.3435 2.2919 5.3742 4.6629 8.8516 2.371 3.4775 6.3226 9.1678 8.6935 12.724 2.371 3.4774 4.3468 6.955 4.3468 7.7452 0 3.7936-10.037 11.934-19.995 16.123-6.7968 2.8451-8.5355 2.2919-11.065-3.2403-1.5807-3.4776-1.6597-4.9792-1.7387-24.658-0.07908-19.916-0.86935-31.613-3.0033-42.282l-0.94833-4.7421-8.6936-4.5839c-9.1678-4.8999-13.04-7.8242-13.04-10.116 0-3.5565 5.7694-3.9516 13.277-1.0274zm-15.569 2.9242c0.63226 1.3436 3.2404 3.9516 5.7694 5.6904 4.5048 3.0822 4.5839 3.1611 2.2919 3.3983-2.6871 0.2371-10.827-3.0822-13.436-5.5323-2.1339-2.0548-2.371-4.1886-0.39517-5.2952 2.529-1.5015 4.4258-0.94823 5.7694 1.7388zm293.92 8.3775c2.2129 4.4257 6.3225 13.91 9.0887 20.944 2.7661 6.9549 7.9032 19.442 11.381 27.74 3.5565 8.2193 6.4018 15.174 6.4018 15.411 0 0.2372-2.055 0.8694-4.5049 1.5016-6.0856 1.3436-20.627 6.7179-27.345 10.037l-5.4533 2.6871-6.2435-4.8209c-7.192-5.5324-6.7178-4.347-7.4291-21.26-0.5532-13.277-1.5017-20.311-3.2403-25.211-1.2645-3.2404-1.2645-3.6355 0.07898-5.9275 2.9242-5.0581 22.129-30.349 22.682-29.874 0.31614 0.31616 2.3709 4.2678 4.584 8.7727zm-294.63 2.4499c6.2436 2.9243 10.037 6.5598 8.8516 8.4565-1.8967 3.0824-3.3193 3.0824-8.4565 0.47426-4.0307-2.1339-10.827-7.4291-10.827-8.5355 0-0.86938 2.6871-2.7661 3.9517-2.7661 0.79032 0 3.7145 1.1063 6.4807 2.3709zm19.205 1.8177c3.6355 2.055 3.7935 2.4501 5.5324 18.494 1.3435 12.961 1.5806 37.857 0.39512 47.656-1.9758 15.886-8.1404 40.781-10.748 43.468-1.5806 1.5806-13.989 1.4225-24.026-0.39527-8.6146-1.5016-22.682-5.9274-27.266-8.5355-4.9-2.7661-5.1371-7.7451-1.1855-22.761 5.4532-20.865 14.463-37.857 28.452-53.821 3.8726-4.4258 3.9516-4.4258 6.8758-3.6354 5.7694 1.5806 11.381-1.6598 9.8-5.7694-0.47421-1.5016-0.15808-2.292 2.0548-4.347 3.0823-2.9242 3.4774-6.4016 1.0274-8.6146-1.6597-1.5016-1.6597-1.5016 0.55318-2.45 3.2404-1.4226 4.9791-1.2645 8.5356 0.71116zm-22.366 8.7727c5.9275 2.7662 8.4565 5.4533 7.5081 7.9034-1.5016 3.8726-17.94-1.5016-17.94-5.8485 0-1.3435 2.7661-4.7419 3.8725-4.7419 0.31613 0 3.3194 1.1853 6.5597 2.687zm254.72 3.3985c6.3227 4.0307 11.618 8.4564 12.724 10.669 1.8967 3.6355 2.687 9.721 3.4773 25.844 0.8694 17.782-0.079 15.728 11.46 24.895 10.353 8.2984 10.116 7.9823 9.4839 12.25-1.1855 8.1405-6.3226 14.463-15.332 18.968-7.9033 4.0307-7.2711 4.4257-17.545-11.934-4.5838-7.1919-7.7451-11.302-11.064-14.226-5.2162-4.5049-7.9034-9.2468-9.4049-16.834-1.8178-9.0096-6.3226-14.384-11.144-13.514-4.5048 0.86926-7.5081-6.2436-4.1887-9.8791 1.9758-2.1339 3.1614-1.8969 10.748 2.0549 7.4291 3.8725 8.5355 4.1886 8.5355 2.3709 0-1.3435-13.277-8.2985-15.806-8.2985-2.1339 0-1.9758-1.7386 0.39515-4.6628 3.7144-4.2677 4.979-4.1096 15.648 2.8452 4.9 3.0821 6.8758 3.6354 6.8758 1.8968 0-0.79054-7.9823-6.0066-13.436-8.8517-1.9758-1.0276-3.7146-1.9758-3.8727-2.055-0.71117-0.3951 3.3984-5.1371 5.2952-6.0856 2.7662-1.4225 5.2162-0.47415 13.673 5.4534 5.2161 3.6354 6.3226 4.1886 6.7968 3.0823 0.23719-0.71143 0.15808-1.5017-0.23706-1.8178-4.0306-2.9243-13.752-9.0887-15.253-9.6419-1.6597-0.7113-1.8177-0.9485-0.7903-1.8969 2.1338-2.1338 5.8484-3.5566 7.8242-3.1612 1.1065 0.31613 3.3985 1.4225 5.1371 2.529zm-20.627 43.942c1.4225 3.0032 1.4225 3.0821-0.1582 4.7419-0.8693 0.94825-9.721 12.961-19.679 26.634-20.39 28.057-69.233 94.049-107.72 145.42-14.147 18.889-39.042 52.32-55.323 74.291-33.984 45.918-36.829 49.554-38.726 50.581-3.9516 2.1339-7.9033-0.3161-7.9033-4.742 0-1.3435 6.2436-10.274 19.047-27.661 21.023-28.372 81.325-109.78 133.8-180.59 18.652-25.211 41.492-56.192 50.739-68.758 9.2467-12.645 17.387-23.552 18.098-24.342 1.2646-1.4225 1.3436-1.4225 3.7936 0 1.4226 0.79028 3.1614 2.8451 4.0308 4.4259zm-140.99 4.7419 6.6388 3.3193 1.3435 6.8759c0.79032 3.7934 2.45 10.195 3.7936 14.226 2.6871 8.4566 5.1371 19.521 6.3226 28.847l0.79038 6.5597-4.0307 7.034c-6.5597 11.539-14.305 18.177-21.181 18.257-10.432 0-24.816-15.411-36.355-39.121-3.7146-7.7452-11.855-26.081-11.855-26.792 0-0.1582 1.5016-0.63232 3.3984-1.1856 6.0855-1.8177 15.49-7.2711 19.758-11.539l4.1888-4.1096 4.3468 5.5322c2.3709 3.0033 7.7452 9.721 11.934 14.858 4.1888 5.1371 8.7726 10.985 10.116 13.04 1.8178 2.5291 2.7661 3.3985 3.3984 2.7661 1.1855-1.1853-0.23707-3.5564-8.1404-13.277-3.7145-4.5838-7.0339-8.6937-7.4291-9.2468-0.7113-1.0275 4.663-19.442 5.6904-19.442 0.31613 0 3.5565 1.5016 7.271 3.3984zm146.53 12.329c0.7903 1.4226 3.9517 5.1372 7.0338 8.2195 8.4566 8.4564 8.3776 8.0613 5.8485 20.944-1.1064 5.9273-2.292 12.566-2.6081 14.621-0.47414 3.5565-0.5531 3.7145-1.8968 2.5291-3.1612-2.8451-15.569-29.558-19.679-42.44-0.9485-2.8452-0.8694-3.0033 3.1612-8.6145l4.1887-5.6904 1.3436 3.9517c0.7113 2.1338 1.8967 5.0581 2.608 6.4806zm85.355-1.1065c5.058 11.618 11.144 30.032 13.119 39.912 2.1339 10.432 2.371 22.366 0.55325 28.452-2.292 7.7451-8.3774 11.855-16.123 10.748-10.037-1.3435-19.442-7.1128-30.19-18.256-5.7694-6.0854-17.466-21.813-17.466-23.552 0-0.2372 1.6598-1.3436 3.7936-2.529 9.0098-5.2162 13.357-10.432 15.253-18.177 0.47427-2.213 1.0275-4.1099 1.1856-4.1889 0.07895-0.15806 1.7386 0.7113 3.6355 2.0548 1.8967 1.2646 7.3498 4.663 12.092 7.5081 4.821 2.7661 10.907 6.7969 13.673 8.7728 5.1371 3.7935 6.4806 4.3467 6.4806 2.608 0-1.5017-7.6662-7.034-20.864-15.095-10.669-6.5596-19.442-13.198-19.442-14.621 0-1.1854 26.555-11.776 29.716-11.855 0.55325-0.0791 2.6082 3.6355 4.584 8.2195zm-87.331 34.774c2.529 5.216 6.3226 11.697 8.2984 14.463 3.0032 4.0307 3.6355 5.5324 3.6355 8.2985 0 6.3226 1.6597 12.487 8.3775 31.297 17.308 47.973 20.944 66.15 27.978 138.78 1.7386 18.256 4.1096 41.176 5.137 50.897 1.1065 9.8 1.9757 18.178 1.9757 18.731 0 2.371-30.586 7.192-63.226 9.9581-15.965 1.3434-72.394 1.3434-90.888-1e-4 -22.999-1.6597-50.739-5.4532-53.663-7.271-0.86932-0.4742-0.63226-5.8484 1.4226-29.716 1.3435-16.044 3.0032-36.434 3.6355-45.365 0.71124-8.9308 1.5806-20.865 1.9758-26.476 0.4742-5.6904 0.79032-11.381 0.79032-12.724 0-1.8968 3.2403-6.7967 15.648-23.315 33.984-45.523 91.994-123.76 110.33-148.9l6.2437-8.5355 3.8725 10.195c2.1339 5.6114 5.9275 14.463 8.4566 19.679zm38.015 270.84c0 0.5533 0.2371 3.3194 0.39516 6.1645 0.15808 2.8452 0.55324 9.405 0.79028 14.542 0.55322 11.776 2.055 25.923 5.5324 51.845 5.6114 41.65 7.8242 61.724 12.566 114.2 3.2404 35.486 4.8211 57.141 4.2679 57.694-1.0275 1.0276-9.7211 3.6355-15.016 4.4259-10.511 1.6597-33.668 1.1854-36.75-0.7113-1.1066-0.7113-2.4501-7.9034-11.697-61.408-11.697-67.968-27.582-157.99-30.902-174.98-0.5533-3.2402-1.0275-5.9275-0.8694-6.0063 0.079-0.0792 7.8242-0.5534 17.15-1.1065 16.439-0.9485 40.149-3.3193 47.42-4.7419 5.2162-1.0276 7.113-1.0276 7.113 0.0789zm-155.3 2.529c14.621 1.5017 36.671 2.8452 46.234 2.8452h7.1129v4.5049c0 2.529-0.55323 12.724-1.1856 22.761-1.0274 16.913-1.5807 29.005-4.7419 109.86-0.71127 16.518-1.8968 44.811-2.7661 62.831-0.86936 18.019-1.5807 33.194-1.5807 33.668 0 1.2646-7.1129 3.3196-15.411 4.347-8.3775 1.1064-28.215 0.4741-33.984-1.0274l-3.9516-1.0276-0.47428-11.064c-0.31612-6.0855-0.71125-29.953-1.0274-52.952-0.47418-41.176-1.2645-71.129-2.8452-109.46-0.47422-10.67-1.1855-27.899-1.5807-38.331-0.39514-10.432-0.94834-21.26-1.2645-24.026l-0.4742-5.058 3.0823 0.4741c1.6597 0.3162 8.3774 1.0275 14.858 1.6597zm32.799 257.09v13.594l-2.529 1.3435c-1.7388 0.9485-5.2162 1.5018-10.59 1.7388l-7.9032 0.3162-5.2162-3.5564c-2.8452-1.8969-7.0339-4.1098-9.2468-4.9002-3.0822-1.0273-4.0306-1.6596-3.7145-2.6079 1.3436-4.584 2.0548-8.2986 2.45-12.803 0.31612-2.8451 0.63225-5.5323 0.79033-5.9274 0.07905-0.4742 6.8759-0.7903 18.098-0.7903l17.861-1e-4v13.594zm139.89-8.2983c0 0.5532 0.55324 5.2952 1.1854 10.432 0.63235 5.2162 1.0274 9.5629 0.86938 9.7211-0.07898 0.158-1.9757-0.4744-4.0306-1.4226-3.0033-1.3436-4.821-1.5808-8.2985-1.2646-5.3741 0.4742-7.6661 1.5807-13.277 6.4016-5.6903 4.9001-6.4807 4.742-6.4807-0.9483 0-2.45-0.55325-8.0613-1.1854-12.329-0.6323-4.3469-1.1855-8.0613-1.1855-8.3774 0-0.3162 5.0581-0.7904 11.302-1.1065 6.1646-0.2371 12.645-0.7904 14.384-1.1855 4.742-1.0275 6.7178-0.9485 6.7178 0.0791zm-176.95 19.284c3.8726 1.1854 11.934 5.7694 13.04 7.5081 0.71134 1.1855 16.992 0.7904 20.469-0.5533 6.1645-2.3709 5.6113-2.8451 6.6388 5.7694 0.4741 4.2679 0.94834 9.642 1.0274 12.013 0.2371 4.1096 0.158 4.3468-1.9758 4.9-1.2646 0.3161-9.0888 1.1854-17.387 1.8969-8.3774 0.6322-20.865 1.9757-27.819 2.8451-18.415 2.2918-35.644 2.7662-42.994 1.1854-3.1613-0.6322-6.7177-1.8176-7.7452-2.5291l-1.9758-1.2644 1.7388-1.8178c1.0274-1.0274 6.9548-4.5838 13.356-7.9033 6.3226-3.3193 16.36-9.4049 22.208-13.514 10.116-7.192 14.305-9.7209 16.281-9.8 0.47426 0 2.7662 0.5532 5.1372 1.2645zm176.48 3.0033c2.0548 1.1855 4.5049 3.7936 6.4017 6.5597 1.6597 2.529 5.3741 7.587 8.1403 11.302 4.8209 6.2437 8.8516 13.356 8.8516 15.569 0 3.0033-24.974 5.7697-38.489 4.268-9.1679-0.9483-14.384-2.608-16.834-5.2161-1.8178-1.9758-1.8178-2.0549-0.8693-11.618 1.2645-13.198 1.2645-13.277 4.5839-13.277 2.0548 0 3.4774-0.7905 6.4807-3.5565 7.4291-6.955 14.463-8.2985 21.734-4.0307zm-135.46 31.613c0 3.3984 0.07898 3.3984-18.81 4.8208-8.1404 0.6324-18.968 1.8179-24.105 2.6873-30.269 5.1372-54.532 3.3984-56.904-4.1097-0.9484-2.9242-0.39515-3.3194 2.371-1.8969 6.8759 3.5565 24.658 3.8727 49.87 0.9485 9.2468-1.0275 23.236-2.45 31.139-3.1614 7.9033-0.6322 14.542-1.3435 14.7-1.5806 1.1064-1.0273 1.7388-0.158 1.7388 2.292zm104.64 5.1372c0.2372 0.3951 3.0033 1.3435 6.1646 2.1338 7.9824 2.0548 31.218 2.0548 40.86 0.0789 3.6355-0.7903 6.7178-1.2645 6.8757-1.1065 0.23717 0.1581 0 1.2646-0.39508 2.3711-1.8178 4.663-20.469 7.9034-36.276 6.2437-12.961-1.3436-19.126-4.2678-19.126-8.9307 0-1.5808 1.1855-2.0549 1.8967-0.7903z"/> <path d="m534.18 657.46c-3.6356 1.8178-4.821 3.4775-3.5565 4.742 0.55323 0.55322 1.8967 0.31606 4.0306-0.79029 4.1888-2.1339 9.8791-2.1339 13.989-0.0791 3.8726 1.9757 4.3468 1.9757 4.3468 0 0-1.1854-1.1064-2.2129-4.1096-3.5564-5.2162-2.4501-10.195-2.5291-14.7-0.31626z"/> <path d="m498.93 672.56c-3.5564 5.058 1.3436 12.329 5.2952 7.9032 2.6872-2.9242 0.79036-9.642-2.6081-9.642-0.79032 0-2.0548 0.79026-2.6871 1.7388z"/> <path d="m540.82 672.56c-3.5565 5.058 1.3435 12.329 5.2952 7.9032 2.6871-2.9242 0.79033-9.642-2.6081-9.642-0.7903 0-2.0548 0.79026-2.6871 1.7388z"/> <path d="m514.74 675.72c-0.23707 0.5531-0.55323 2.687-0.7903 4.8209-0.2372 2.0548-1.8968 7.5081-3.6355 12.171-1.7387 4.6628-3.1613 9.6418-3.1613 11.065 0 2.2919 0.39521 2.8451 2.6081 3.7143 1.3436 0.55336 4.2678 1.2646 6.3227 1.5808 3.3193 0.39502 3.7934 0.31607 3.5564-0.86953-0.1581-0.9482-1.5016-1.6595-4.3468-2.2127-6.4016-1.2646-6.4016-1.4226-2.7661-11.223 3.3983-9.0888 5.2951-16.992 4.5838-18.889-0.55322-1.3435-1.9758-1.4225-2.371-0.15794z"/> <path d="m534.1 719.19c-1.8178 0.8694-5.6113 1.8968-8.3775 2.292-4.2678 0.7113-5.6113 0.55323-9.8791-0.8695-5.1371-1.7385-6.0064-1.6595-5.2951 0.3163 0.79029 1.9758 8.9306 3.8726 14.542 3.3983 5.7693-0.5532 14.068-3.6354 14.068-5.2162 0-1.6595-1.2645-1.6595-5.0581 0.0791z"/> <path d="m770.8 639.76c-1.1066 1.1066-0.31616 2.4501 1.5806 2.9243 5.3742 1.4225 13.515 9.0096 16.281 15.332 2.8451 6.4016 3.8726 11.302 4.3468 21.102 0.55337 11.46-0.47413 21.023-4.1886 38.884-3.0033 14.621-3.3984 19.995-1.5017 19.995 0.79043 0 1.1856-0.86925 1.1856-2.7661 0-1.5016 1.0274-7.5872 2.292-13.593 3.5564-16.676 4.8209-26.713 4.8208-38.252 0-16.676-3.1613-27.266-10.353-35.09-4.3468-4.7419-13.119-9.879-14.463-8.5355z"/> <path d="m759.27 662.28c0 0.5533 1.1856 2.2129 2.6872 3.7936 3.7145 3.7936 6.4805 9.5628 8.4563 17.861 1.897 7.5872 2.0551 13.752 1.5019 46.945-0.3162 18.81 0.23703 23.078 4.7419 34.537 2.5291 6.5598 7.5081 13.91 9.7211 14.305 2.0548 0.39514 1.5806-1.2644-1.1856-4.4258-3.7146-4.2678-7.7452-13.673-9.4839-22.208-1.5017-7.0338-1.5807-9.4837-1.0274-32.087 0.3951-20.232 0.316-25.844-0.71144-32.008-1.8969-11.934-4.742-19.047-9.721-24.579-2.7661-3.0032-4.979-4.0306-4.979-2.1339z"/> <path d="m804.24 722.58c-4.7419 10.67-6.1645 30.665-3.0823 42.678 1.8967 7.5082 6.7178 17.782 8.3775 17.782 1.6596 0 1.4225-1.0274-1.6597-7.1129-4.5049-8.9308-6.1645-17.545-5.6904-28.847 0.3951-9.3258 2.45-19.442 4.821-24.184 0.9484-1.8969 0.9484-2.3711 0-3.1614-0.86936-0.7113-1.4226-0.23706-2.7661 2.8451z"/> <path d="m758.71 763.84c0.79027 9.879 4.8209 21.26 9.642 26.95 3.0822 3.6356 7.3501 6.1647 8.5356 4.9002 0.7113-0.7113 0.5532-1.1856-0.63235-1.8969-4.1096-2.371-8.9306-8.2984-10.985-13.594-2.1339-5.6903-4.4258-16.044-4.4258-20.153 0-1.5807-0.39515-2.2919-1.2645-2.2919-1.1856 0-1.2646 0.7903-0.8694 6.0855z"/> <path d="m793.01 785.97c-0.31616 0.23705-0.55323 0.7903-0.55323 1.1855 0 1.0274 7.1919 5.3742 8.8517 5.3742 2.529 0 1.5016-2.0548-1.7388-3.5564-1.7386-0.7904-3.5566-1.8967-4.0306-2.5291-1.0275-1.1064-1.7388-1.2645-2.529-0.47423z"/> <path d="m648.93 780.1v5e-5c0 0.30006-0.1082 0.59-0.3047 0.8167l-9.4695 10.926c-0.45104 0.52047-1.2386 0.57674-1.7591 0.1257-0.52045-0.45106-0.57675-1.2387-0.12565-1.7591l9.4695-10.926-0.30469 0.8167v-5e-5c0-0.68872 0.55833-1.247 1.2471-1.247 0.68872 0 1.2471 0.55833 1.2471 1.247z"/> <path d="m820.47 764.08 12.167 22.445c0.30218 0.5575 0.14947 1.2523-0.35856 1.6317-4.5567 3.4029-9.2185 6.884-18.326 9.6233-6.8159 2.0502-16.152 3.6951-24.383 3.6951-2.6728 0-5.2501-0.17334-7.5998-0.56988-9.6895-1.6353-15.165-7.0072-19.539-12.17-4.3573-5.1424-7.7752-10.264-11.15-15.319-0.3916-0.58656-0.2336-1.3795 0.353-1.7711 0.5865-0.3916 1.3794-0.23355 1.771 0.353 3.3835 5.068 6.7249 10.071 10.975 15.086 4.2329 4.9957 9.213 9.8165 18.016 11.302 2.1761 0.36725 4.6047 0.53425 7.1748 0.53425 7.9466 0 17.033-1.5971 23.648-3.5869 8.6764-2.6098 13.052-5.8777 17.533-9.2239l-0.3586 1.6316-12.167-22.445c-0.3361-0.62-0.1059-1.395 0.5141-1.7312 0.62-0.3361 1.395-0.1059 1.7311 0.5141z"/> <g fill="#1f4e6d"> <path d="m633.52 1201c-1.1591 0-2.9427 0.2622-5.5015 0.7663h3e-4c-7.2514 1.4188-30.946 3.7889-47.383 4.7373h-4e-4c-9.0687 0.5379-16.701 1.0037-17.171 1.1054h-0.00295c-0.02183 0.0045-0.09623 0.0252-0.15055 0.0795h-0.00141c-0.08191 0.079-0.09524 0.1847-0.09694 0.1943-0.0752 0.4222 0.3151 2.672 0.76625 5.3087l0.12641 0.7393 0.00114 0.0062c3.3172 16.981 19.205 107.01 30.901 174.97v3e-4c9.2219 53.361 10.578 60.793 11.817 61.589l0.0045 0.0028c1.876 1.1544 10.574 1.766 19.471 1.766 6.4254 0 13.047-0.321 17.461-1.0177h-7.3e-4c5.2684-0.7864 14.063-3.3982 15.167-4.5018l7e-4 -6e-4c0.0466-0.047 0.0709-0.1 0.0843-0.1338 0.5086-1.2869-1.0932-22.93-4.275-57.775v3e-4c-4.7421-52.48-6.9554-72.559-12.567-114.21v2e-4c-3.4773-25.922-4.9776-40.058-5.5303-51.822v2e-4c-0.18206-3.9442-0.4547-8.6848-0.6449-11.992-0.05615-0.9764-0.11034-1.9202-0.1455-2.553-0.08154-1.4679-0.1826-2.8941-0.26306-4.0304-0.05237-0.7393-0.09387-1.3231-0.11604-1.7229v-1e-4c-0.0104-0.1872-0.0156-0.3169-0.0156-0.3962 0-0.8421-0.79024-1.1096-1.9331-1.1096z"/> <path d="m461.95 1202.2c-0.06821 0-0.13452 0.026-0.1849 0.0734-0.06043 0.057-0.09122 0.1386-0.08347 0.2212l0.47422 5.058 5.7e-4 0.0055c0.31473 2.7538 0.86759 13.568 1.2629 24.006l2.5e-4 7e-3 3e-5 0.0011c0.39529 10.433 1.1064 27.658 1.5805 38.324h-3e-5c1.5807 38.331 2.3708 68.275 2.8449 109.45l3e-5 6e-4c0.31604 22.992 0.71143 46.873 1.0277 52.962h-2e-5l0.47418 11.062c0.00507 0.1183 0.0868 0.2194 0.20142 0.2492l3.9516 1.0276h-5e-5c3.7974 0.9883 13.557 1.5962 22.196 1.5962 4.6275 0 8.9497-0.1741 11.889-0.5622h-3e-4c8.0914-1.0017 15.648-3.0405 15.648-4.6144 0-0.4644 0.7107-15.629 1.5804-33.655 0.70346-14.58 1.6151-35.914 2.3136-52.262l0.45263-10.57 6e-5 -9e-4c3.1614-80.854 3.7142-92.937 4.7416-109.85 0.63206-10.033 1.1861-20.238 1.1861-22.778v-4.5039c0-0.1488-0.12061-0.2696-0.26944-0.2696l-7.1129-9e-4h-5e-5c-9.5488 0-31.593-1.3428-46.207-2.8438h2.1e-4l-0.02123-0.0022-0.0016-1e-4c-6.4797-0.632-13.173-1.3417-14.813-1.6541l-0.00945-0.0016-3.0823-0.4741c-0.01365-0.0021-0.02732-0.0031-0.0409-0.0031z"/> </g> <g fill="#fff"> <path d="m590.53 771.03c-0.58093 0.00976-2.6135 2.3344-4.4694 4.8861h4e-5c-7.1756 9.8566-24.066 23.273-34.706 27.608h4e-5c-6.2838 2.5418-11.798 3.815-16.675 3.815-6.0151 0-11.067-1.9369-15.404-5.8395-2.1321-1.9742-4.4031-4.6432-5.021-6.0336-0.49231-1.1077-1.1179-2.5742-1.6015-3.7076-0.1505-0.35277-0.2557-0.59961-0.37345-0.87427l-0.00159-0.0036c-0.30554-0.66657-0.56996-1.2692-0.95801-1.2692-0.53945 0-1.0908 1.2725-2.2543 3.8786-4.5045 10.036-13.133 37.884-13.133 42.426 0 1.5494 2.4771 1.5848 31.61 2.2129h4.7e-4c17.235 0.3164 32.715 0.6321 34.375 0.7111l0.0035 1.3e-4 3.0823 0.07897c0.00134 1e-4 0.00274 1e-4 0.00409 1e-4 0.06735 0 0.1275-0.0428 0.14945-0.10684l3.7935-11.065 2e-4 -6.5e-4c6.082-18.009 11.767-30.168 21.007-45.095l4.8e-4 -7e-4 5.2162-8.5356c0.0425-0.06952 0.02517-0.16005-0.04-0.20895l-1.8969-1.4226c-0.93463-0.701-2.2445-1.4542-2.7029-1.4542z"/> <path d="m494.93 785.4c-0.62738 0-2.1507 0.53184-5.5895 1.8214l-6.2e-4 1.9e-4c-12.184 4.6677-18.997 9.6562-24.858 17.973h3e-5c-5.1464 7.2842-7.2843 12.673-15.503 38.435l-1.7e-4 4e-4c-3.7154 11.858-7.665 23.943-8.7706 26.786l-2.8e-4 8e-4c-1.0807 2.8563-1.7549 5.4426-1.4942 5.772l1.8e-4 2.6e-4c0.00433 0.0054 0.00781 0.0093 0.01315 0.0147 0.00275 0.00274 0.00168 0.0018 0.00603 0.0057 0.49492 0.4447 18.137 7.9221 19.635 8.3163l0.00494 0.0012c0.01435 0.0029 0.02462 0.0039 0.03888 0.0039 0.50296 0 0.94651-2.3493 1.0975-5.0645h-3e-5c0.23642-2.8372 1.4204-8.838 2.6842-13.419 1.2645-4.5839 2.5305-10.437 2.7689-13.054 1.1136-9.9432 4.4397-20.863 6.3112-20.863 0.62082 0 0.96505 0.48063 0.96505 1.2949 0 0.66535-0.23574 1.5275-0.729 2.4436l-1.8e-4 3e-4c-1.2172 2.2824-3.7649 12.198-3.276 12.801 0.01263 0.01564 0.02829 0.02974 0.04818 0.0404h5e-5c0.0209 0.01114 0.04436 0.01691 0.06776 0.01691 0.00144 0 0.0101-2.7e-4 0.01151-3.1e-4l0.00123-1.2e-4c1.2122-0.08674 10.782-22.293 19.83-45.975h-3e-5c2.1342-5.4542 4.5829-11.378 5.5282-13.19 0.94149-1.8045 1.67-3.491 1.67-3.7566 0-0.2569-0.13445-0.4051-0.46084-0.4051z"/> <path d="m652.71 811.22c-0.01876 0-0.03479 0.00314-0.04932 0.0073h-4e-5c-1.1656 0.3334-19.841 24.97-22.707 29.928-1.365 2.3289-1.3584 2.7608-0.0861 6.0213h-1e-4c1.732 4.8831 2.68 11.901 3.2331 25.176v4e-5c0.04244 1.0083 0.07674 1.8559 0.11284 2.7489 0.02877 0.70976 0.0622 1.5327 0.0885 2.1592 0.47145 11.208 0.78975 11.484 6.2888 15.682 0.26123 0.19945 0.68596 0.52398 0.9812 0.75109l6.2434 4.8208 0.1143 0.01145 5.4532-2.6871 1.5e-4 -1e-4c6.7116-3.3163 21.246-8.6873 27.32-10.029l0.00373-8.6e-4c2.3036-0.5945 4.3561-1.2078 4.5568-1.5136h-5e-5c0.0154-0.02344 0.0296-0.05445 0.0296-0.0931 0-0.00993-8.6e-4 -0.0172-0.00184-0.0239-0.05462-0.3759-2.8909-7.3002-6.4083-15.429-3.4785-8.301-8.6127-20.781-11.38-27.738h4e-5c-2.7668-7.0354-6.8771-16.521-9.0923-20.952h5e-5c-2.2054-4.4894-4.2716-8.4685-4.6046-8.8016l-0.0061-0.00566c-0.0291-0.0249-0.06326-0.03274-0.09084-0.03274z"/> <path d="m595.19 887.02c-0.03415 0-0.06671 0.0162-0.0874 0.0442l-4.1888 5.6904-7e-4 0.00107c-4.028 5.6075-4.1439 5.8089-3.1761 8.7121 4.108 12.876 16.523 39.619 19.71 42.487l0.0031 0.00267c0.45025 0.39713 0.80127 0.68803 1.0834 0.68803 0.55727 0 0.69377-1.0611 0.99007-3.284h-1e-4c0.3148-2.0458 1.5023-8.6958 2.6074-14.616l0.11396-0.57995 0.10705-0.54498c2.2639-11.532 2.1362-11.687-5.5994-19.417l-0.49985-0.4996v5e-5c-3.0793-3.0794-6.2278-6.7808-7.0134-8.1913h-1.4e-4c-0.70831-1.4166-1.8921-4.3364-2.6021-6.4664l-2.5e-4 -6e-4 -1.3436-3.9517c-0.013-0.03825-0.04617-0.06614-0.08615-0.0723-0.00555-8.6e-4 -0.0111-0.0013-0.0166-0.0013z"/> </g> <g fill="#ffd04a"> <path d="m608.38 833.83c-2.1015 0-5.2721 1.351-7.1857 3.2646h-5e-5c-0.57202 0.5285-0.901 0.94234-0.5191 1.3562h5e-5c0.22004 0.23828 0.67756 0.4602 1.3494 0.74814l0.00614 0.00247c1.4813 0.54577 11.189 6.6988 15.222 9.6255h-3e-4c0.3261 0.26655 0.4226 0.98035 0.1913 1.6742h-5.6e-4c-0.12689 0.29095-0.28484 0.42212-0.5553 0.42212-0.75974 0-2.3489-0.99121-6.0467-3.5685-6.2258-4.364-9.233-6.0595-11.521-6.0595-0.82092 0-1.5435 0.21696-2.2828 0.5971h-1e-4c-1.7872 0.89496-5.819 5.3773-5.4113 6.1929 0.02474 0.04945 0.06325 0.0902 0.11256 0.1176l0.00489 0.00253c0.03855 0.01937 0.22885 0.1214 0.50865 0.27173 0.67665 0.36354 1.9726 1.0596 3.3623 1.7823h-6e-5c5.4984 2.8686 13.334 8.0252 13.367 8.7388h-4e-5c-1e-4 0.5926-0.23183 0.84873-0.7422 0.84873-0.9607 0-2.8491-0.91083-5.9364-2.8526h-1.5e-4c-6.0415-3.9382-9.1071-5.7279-11.319-5.7279-1.7109 0-2.893 1.0644-4.4956 2.9057l-0.00286 0.00345c-1.7531 2.1622-2.416 3.8216-1.5354 4.5356 0.28131 0.22807 0.70191 0.33517 1.2392 0.33517 2.541 0 15.679 6.9585 15.679 8.1709 0 0.67606-0.14819 0.94223-0.62958 0.94223-0.94406 0-3.0795-1.0076-7.7182-3.4255h1e-4l-0.00307-0.0016c-4.508-2.3479-6.7898-3.4052-8.3252-3.4052-1.0668 0-1.7679 0.50696-2.574 1.3776l-6e-4 7e-4c-2.3798 2.6064-1.5819 6.9323 0.6745 8.9925 0.7909 0.7221 1.7673 1.1731 2.8567 1.1731 0.2522 0 0.5121-0.02447 0.7746-0.07501h-2.7e-4c0.33337-0.06013 0.66492-0.08963 0.9939-0.08963 4.3224 0 8.3129 5.1314 10.002 13.504h-7e-5c1.5065 7.6116 4.207 12.38 9.4466 16.905 3.3048 2.9118 6.4581 7.0086 11.04 14.198l1.0546 1.6806 0.91075 1.4516c5.1959 8.2735 7.1444 11.196 9.7886 11.196 1.3844 0 2.944-0.80397 5.2196-1.9714 0.3526-0.18085 0.3674-0.1889 0.7364-0.3771h5e-5c9.037-4.5185 14.208-10.872 15.401-19.063 0.01896-0.1281 0.02604-0.1754 0.04447-0.29846v6e-5c0.00913-0.06085 0.03243-0.2166 0.04083-0.2731v-1e-4c0.5441-3.6729 0.2427-3.8979-8.8364-11.172l-0.7792-0.6244-4e-4 -3e-4c-0.80923-0.64295-1.5911-1.2574-2.2788-1.7979-0.58256-0.45784-1.1755-0.92394-1.6753-1.321-6.7172-5.337-6.751-6.1484-7.2941-18.165-0.0501-1.1086-0.1001-2.2183-0.16363-3.5181-0.78961-16.108-1.5787-22.228-3.4906-25.894h-3e-5c-1.1252-2.2501-6.4536-6.6932-12.77-10.72l-1e-4 -1e-4c-1.7438-1.1098-4.0474-2.2231-5.1705-2.544l-0.01003-0.00245c-0.23187-0.0464-0.48527-0.0685-0.75373-0.0685z"/> <path d="m370.32 806.79c-2.8685 0-4.7126 1.0048-4.7126 3.0466 0 2.3476 3.9358 5.294 13.079 10.181l3.7e-4 1.6e-4 8.6627 4.5676 0.94149 4.7079c2.1325 10.662 2.9228 22.354 3.0019 42.268 0.07898 19.67 0.1564 21.193 1.7453 24.688l5e-5 2e-4c1.5568 3.4055 2.832 4.968 5.2048 4.968 1.4657 0 3.3442-0.59765 5.9548-1.6904l1.3e-4 -4e-5c9.9453-4.1835 20.04-12.34 20.04-16.19 0-0.81915-1.9965-4.3206-4.3592-7.786-1.5612-2.3417-3.799-5.5961-5.8277-8.5464-1.0556-1.5351-2.0547-2.9881-2.8662-4.1784-2.371-3.4774-4.4166-7.4958-4.6512-8.8224-0.10892-0.6535-0.31857-2.1961-0.59039-4.1965-0.31888-2.3465-0.72092-5.3054-1.1479-8.2088-1.6592-12.957-3.5568-19.383-6.3415-22.407l-0.00125-0.00135c-2.4624-2.5419-10.696-6.9724-19.468-10.449l-4.3e-4 -2e-4c-3.347-1.3035-6.3556-1.9508-8.6648-1.9508z"/> <path d="m360.13 809.15c-0.76094 0-1.5999 0.27645-2.5198 0.82255-1.4789 0.82864-1.7277 2.2303-0.88284 3.7389 0.29422 0.52535 0.72043 1.0632 1.2735 1.5958l2.1e-4 1.6e-4c2.5233 2.3704 10.211 5.5511 13.16 5.5511 0.10141 0 0.20504-0.00426 0.29452-0.0121h4.2e-4l0.0024-1.6e-4 6.3e-4 -4e-5c0.94025-0.0974 1.5329-0.16664 1.5006-0.4786-0.04138-0.39996-1.1852-1.1874-3.7833-2.965h-5e-5c-2.5283-1.7383-5.1316-4.343-5.7609-5.6805l-2.4e-4 -5.6e-4c-0.85819-1.7163-1.9456-2.5716-3.2847-2.5716z"/> <path d="m356.2 820.16c-1.2695 0-3.9766 1.9005-3.9766 2.7911 0 1.1251 6.8179 6.4278 10.841 8.5576l4e-4 2.3e-4c2.4598 1.2489 4.0748 1.9032 5.2979 1.9032 1.3361 0 2.2021-0.77943 3.191-2.3865h2e-5c0.93058-1.4889-1.1535-4.0041-4.9988-6.4074h3e-5c-1.1408-0.71301-2.4377-1.4172-3.8635-2.085l-1.3e-4 -1e-4 -0.00119-5e-4 -9e-5 -1e-4c-2.7629-1.263-5.6933-2.3725-6.4898-2.3725z"/> <path d="m352.96 830.44c-1.1248 0-3.8975 3.4146-3.8975 4.7668 0 3.3225 9.4778 7.206 14.697 7.206 1.6668 0 2.9215-0.3948 3.2914-1.3485 0.95801-2.4749-1.5998-5.1719-7.5208-7.935h-7e-5l-0.00155-7.4e-4 -1.2e-4 -5e-5c-3.2358-1.4995-6.2454-2.6886-6.5687-2.6886z"/> <path d="m359.72 791.79c-0.01618 0-0.03324 0.0015-0.04587 0.0047h-0.00202c-0.87262 0.10295-5.8716 5.8213-5.8066 6.5362 0.00229 0.02507 0.01066 0.04844 0.02766 0.0654v-5e-5c0.1625 0.16245 2.6209 1.2718 5.3826 2.3766h6e-5l4.9787 2.0547 0.02778-0.00606 2.2129-2.3709c1.2675-1.3468 2.6032-2.3631 3.064-2.3631 0.62943 0 0.96414-0.14099 0.96414-0.42413 3e-5 -0.65344-1.8858-1.98-5.1419-3.4958h-3e-5c-2.6684-1.2961-5.2018-2.3776-5.6615-2.3776z"/> <path d="m349.79 787.76c-0.92855 0-2.3729 0.3304-3.2342 0.8877h-1e-4c-1.3642 0.7801-1.7173 2.5164-0.97423 3.8167 0.16467 0.2882 0.38363 0.5553 0.65703 0.7856l1.3e-4 1.4e-4c0.2561 0.20956 0.48673 0.32501 0.71951 0.32501 0.55814 0 1.1165-0.66455 2.0638-2.2246l2.4e-4 -4.5e-4 0.14176-0.25765 0.13757-0.2501c0.75076-1.3651 1.3817-2.5226 1.3817-2.7382 0-0.24139-0.3757-0.34414-0.89315-0.34414z"/> </g> <g fill="#f01"> <path d="m597.33 775.66-0.02093 8e-4h-1.7e-4c-0.06953 0.00537-0.12776 0.0314-0.16603 0.05237h-7e-5c-1.4656 0.80493-13.971 22.887-17.45 30.695h-4e-5c-2.1389 4.6742-5.6978 13.849-7.9906 20.411h-1e-4c-0.386 1.0916-0.7676 2.1741-1.1332 3.2112-0.38644 1.0961-0.62527 1.7739-0.9827 2.7846-1.3494 3.8156-2.3536 6.5963-2.5996 6.99l-0.0127 0.0226c-0.2949 0.5898-0.92144 0.9841-8.6761 0.9841-6.2277 0-16.953-0.2346-35.566-0.66083h-0.0018c-20.271-0.53347-28.468-0.93567-29.234-1.5039h-0.00495c-1.3282-3.5048 9.2278-37.582 15.803-50.972h-3e-5c2.1564-4.2411 3.7238-7.881 3.7051-8.5155-9.4e-4 -0.0319-0.00424-0.21676-0.17344-0.3038-0.04025-0.02075-0.0811-0.0303-0.1182-0.03295h-0.0051l0.0108 0.00122-0.031-0.00293c-0.01046 0-0.0174 4.2e-4 -0.0167 4.2e-4h-6.5e-4c-0.49865 0.02198-3.6257 1.1506-6.9503 2.3877l-0.00281 0.0011c-6.2148 2.3904-6.3521 2.5095-8.9174 7.4798l-0.00158 0.0032c-1.3494 2.6987-4.5926 10.214-7.2015 16.776l-4.9e-4 0.00123c-8.4553 21.573-13.275 33.029-18.092 43.453l-1.4e-4 2.4e-4c-11.167 24.235-12.366 36.794-5.2279 58.762 5.9192 18.231 8.6 35.744 7.9691 51.987-0.552 14.116-2.758 25.708-10.819 57.558h-2e-5c-3.5067 13.637-6.2795 25.472-6.1751 26.393 0.0021 0.0184 0.00505 0.0372 0.0104 0.0586l0.00228 0.0086c0.03979 0.1397 0.16174 0.2361 0.31186 0.2361 0.06406 0 0.11766-0.0172 0.155-0.0322l4.8e-4 -2e-4c0.8169-0.3296 5.1998-5.7743 10.29-12.683 5.526-7.4995 24.743-33.438 42.598-57.535l17.615-23.77c12.401-16.736 23.851-32.2 29.172-39.456 7.9097-10.678 16.902-22.825 20.074-27.187l5.7694-7.7452c0.07637-0.1025 0.07147-0.2442-0.01173-0.34126l-2.371-2.7662-0.00354-0.0041c-2.536-2.8433-2.9888-5.8824-1.2263-9.2541l0.0055-0.011c0.57751-1.2376 1.2895-5.2351 1.5266-8.9484 1.1026-15.831 4.7188-26.778 18.15-53.956l2e-4 -3.6e-4c4.992-10.138 9.0221-19.009 8.9679-20.003-0.00177-0.032-0.00687-0.0754-0.02307-0.12085h-2.5e-4c-0.00715-0.02135-0.0169-0.04432-0.02582-0.06235h7e-5c-0.3046-0.6192-2.8701-1.8102-5.4376-2.7165l-0.00906-0.0031c-0.85714-0.26926-1.6178-0.5124-2.355-0.7479-0.59936-0.19147-1.086-0.3469-1.55-0.4928-0.7604-0.23895-1.3331-0.4122-1.5084-0.4292h-1e-4c-0.01185-0.00116-0.0275-0.0022-0.0428-0.0022z"/> <path d="m584.84 901.08c-0.0865 0-0.16884 0.04104-0.2207 0.112l-6.2437 8.5356-1.6e-4 3e-4c-18.336 25.133-76.342 103.37-110.33 148.89h4e-5c-12.358 16.451-15.703 21.462-15.703 23.478 0 1.3309-0.3151 7.01-0.78938 12.702l-2.8e-4 0.0036c-0.39532 5.6139-1.2642 17.54-1.9756 26.473l-1.9e-4 0.0025c-0.63223 8.9303-2.2915 29.315-3.6352 45.361-2.0368 23.658-2.3589 29.391-1.2811 29.979h-7e-4c3.063 1.8665 30.855 5.6498 53.775 7.3037h-1.3e-4c9.2599 0.6727 27.997 1.0084 46.413 1.0084 18.418 0 36.517-0.3353 44.517-1.0085h1e-4c32.358-2.7422 63.476-7.5266 63.476-10.231 0-0.5743-0.8725-8.9747-1.9772-18.76h-6e-5c-1.0284-9.7302-3.3973-32.629-5.1368-50.894l-6e-5 -5e-4c-7.0353-72.645-10.674-90.846-27.992-138.85-6.7214-18.82-8.3616-24.939-8.3616-31.205 0-2.8539-0.6744-4.4144-3.6864-8.4574h-1e-4c-1.9646-2.7504-5.7504-9.2165-8.2749-14.423v1e-4c-2.5254-5.2088-6.3156-14.052-8.447-19.657h6e-5l-3.8726-10.195c-0.0356-0.09376-0.11963-0.16046-0.219-0.17389-0.01227-0.00167-0.0245-0.00247-0.0366-0.00247z"/> </g> <g fill="#ffb68e"> <path d="m540.95 656.14c2.5104 0 5.1251 0.6214 7.813 1.8839l0.00467 0.00205c3.0352 1.3579 3.9478 2.3221 3.9478 3.3068 0 1.0672-0.15157 1.2084-0.44777 1.2084-0.51916 0-1.5322-0.4473-3.5013-1.4519l-2e-3 -9.6e-4c-2.0787-1.0393-4.5443-1.5603-7.0174-1.5603-2.5199 0-5.0603 0.54116-7.2178 1.6403l-0.0017 9e-4c-1.3944 0.7229-2.4041 1.0467-3.0531 1.0467-0.3335 0-0.53626-0.08495-0.6583-0.207-0.6016-0.6016-0.5811-1.3144 0.3447-2.2401 0.6382-0.63816 1.6785-1.3328 3.139-2.0632 2.1206-1.0417 4.3443-1.5656 6.6502-1.5656zm-39.332 14.95c2.0218 0 3.6081 2.7628 3.6081 5.6166 0 1.368-0.37622 2.669-1.2014 3.567l-0.00264 0.0029c-0.82001 0.91843-1.6536 1.2796-2.4094 1.2796-1.888 0-3.6379-2.314-3.6379-5.1184 0-1.2396 0.34982-2.5446 1.1798-3.725l0.00384-0.0056c0.60068-0.90114 1.7906-1.617 2.4596-1.617zm41.887 0c2.0218 0 3.6081 2.7628 3.6081 5.6166 0 1.3679-0.3762 2.669-1.2014 3.5669l-0.0026 0.0029c-0.8201 0.91843-1.6537 1.2796-2.4094 1.2796-1.888 0-3.638-2.314-3.638-5.1184 0-1.24 0.34976-2.5444 1.1799-3.725l0.00384-0.0056c0.60071-0.90114 1.7906-1.617 2.4596-1.617zm-27.706 3.9991c0.3548 0 0.79764 0.26134 1.0564 0.88974h-2.6e-4c0.6576 1.7918-1.1746 9.5626-4.5868 18.689l-1.6e-4 4.3e-4 -0.0059 0.01574-5e-5 2.5e-4c-2.7231 7.3407-3.5923 9.5841-0.52078 10.724 0.85563 0.3174 2.0195 0.555 3.4961 0.8467l8e-4 2e-4c2.9047 0.5648 4.0077 1.2602 4.1293 1.9893l0.00159 0.0087c0.11432 0.5714 0.03305 0.65384-0.27838 0.71616h3e-5c-0.1303 0.02604-0.30057 0.03994-0.52854 0.03994-0.53363 0-1.3149-0.0769-2.4399-0.2107h-7e-4c-2.0452-0.3147-4.9445-1.0217-6.2594-1.5632l-0.00414-0.0017c-2.1144-0.83056-2.4346-1.287-2.4346-3.4598 0-1.3634 1.4003-6.2926 3.1441-10.969 1.7363-4.657 3.4068-10.134 3.6503-12.23l0.00109-0.00848c0.23938-2.1552 0.5528-4.2353 0.76947-4.7409l0.00967-0.0261c0.15934-0.5098 0.4899-0.70924 0.80076-0.70924zm22.28 43.055c0.57691 0 0.80561 0.24607 0.80561 0.96147 0 1.274-7.9055 4.3768-13.82 4.944h-4.6e-4c-0.5823 0.04915-1.1914 0.07235-1.82 0.07235-5.4561 0-11.792-1.7299-12.438-3.2911h-2.7e-4c-0.32489-0.90247-0.19643-1.0801-0.02323-1.1426h1e-4c0.07647-0.0275 0.188-0.04637 0.3496-0.04637 0.7484 0 2.1761 0.39594 4.6238 1.2243l0.00115 3.6e-4 0.0022 7.4e-4c2.6624 0.88751 4.2206 1.2954 6.0717 1.2954 1.1126 0 2.3217-0.14735 3.9308-0.41535h-3.5e-4c2.7804-0.3973 6.6-1.4291 8.4527-2.3141h4e-5c1.928-0.8836 3.1461-1.2892 3.8651-1.2892zm-19.249-96.532c-0.12533 0-0.2526 0.00333-0.39145 0.0099h-0.00145c-2.5166 0.0839-8.0879 2.003-11.892 4.0634l-0.0012 6e-4c-5.867 3.2149-12.376 13.657-15.071 24.118-1.096 4.2382-1.5996 10.106-0.84325 10.872h2e-5c0.05313 0.05387 0.1235 0.10245 0.212 0.1253h1.2e-4c0.03458 0.0089 0.07026 0.0134 0.10553 0.0134 0.02677 0 0.05027-0.00256 0.07163-6e-3h-2.5e-4c0.37895-0.0602 1.6454-0.80216 2.7778-1.7066h-3.4e-4c1.8873-1.384 4.2371-2.0858 6.6146-2.0858 1.9842 0 3.9804 0.48884 5.7354 1.4716l8.4e-4 4.4e-4c2.7354 1.5196 3.4091 2.8712 3.1424 3.3513l-3e-5 1e-4c-0.10067 0.1812-0.39162 0.3598-1.0226 0.3598-0.67661 0-1.6513-0.21066-2.9102-0.72555h2.8e-4c-1.7883-0.74495-3.3514-1.1332-4.9176-1.1332-1.7971 0-3.5693 0.51143-5.6604 1.5356h-1e-4l-3.3166 1.5792c-0.08948 0.0426-0.14888 0.13031-0.1553 0.22916l-0.55318 8.5356-2.3e-4 0.00375c-0.23669 4.6544-0.8681 10.573-1.2618 13.172h-4e-5c-3.8056 23.004 9.3402 53.49 26.551 61.618l2.4e-4 1e-4c3.3836 1.5937 6.9933 2.3823 10.757 2.3823 8.5003 0 17.764-4.0213 26.998-11.826l0.0014-0.0012c2.8752-2.4644 4.6545-3.5689 5.5002-3.5689 0.31185 0 0.52759 0.1585 0.52911 0.8251h-0.00561c-0.1969 0.4677-2.3778 2.6561-5.1917 5.0136h-3e-5c-6.2182 5.0365-15.976 9.99-22.404 11.323h-3.1e-4l-4.579 0.86837c-0.1291 0.02447-0.22246 0.13733-0.22246 0.26867v3.3983c-4e-5 4.8705-1.4966 12.174-3.2103 15.524l-0.00115 0.00219c-0.76422 1.5283-3.0188 3.945-4.8862 5.19l-0.0056 0.0038c-5.1742 3.6381-6.5364 8.5965-4.1308 15.332 3.0366 8.6548 10.184 13.08 19.444 13.08 7.1103 0 15.463-2.6051 24.186-7.8797h5e-5c7.612-4.5988 17.671-13.153 23.46-19.972l4.2678-4.9791c0.0961-0.11206 0.0859-0.28016-0.02306-0.37976l-2.7661-2.5291-9e-4 -8.4e-4c-6.6126-5.9901-8.3667-14.625-8.3667-41.447v-18.614l2.967-9e-4h-1e-4c2.8772 0 3.8928-0.6191 7.6944-4.183h1e-4c5.8102-5.4122 9.332-12.592 9.4128-19.004h-7e-5c0.07966-3.8995-0.23846-5.0954-1.8924-6.8324h-5e-5c-1.3593-1.4347-2.8986-2.173-4.573-2.173-1.9292 0-3.9785 0.97954-6.0825 2.8689l-0.00253 0.00235-2.838 2.6138-3.0589-2.2382-0.00166-0.00124c-3.8984-2.8068-7.4234-7.8138-9.1466-13.061-1.207-3.7012-1.6595-4.1779-4.7654-5.0772-10.219-3.0658-23.534-11.729-31.882-20.942h-6e-5c-5.0671-5.7003-10.363-14.716-10.363-17.522 0-1.3306-0.54054-1.8638-2.0288-1.8638z"/> <path d="m679.93 888.09c-0.0077 1.3e-4 -0.01836 6.1e-4 -0.0289 0.00186h-0.00686c-3.2008 0.1149-29.292 10.465-29.828 11.915l-5e-5 1e-4c-0.00955 0.026-0.01645 0.0554-0.01645 0.08834 0 1.5318 8.9076 8.2277 19.513 14.748l3.6e-4 1.7e-4c13.268 8.1039 20.793 13.577 20.793 14.968 0 0.60545-0.1588 0.79345-0.4625 0.79345-0.74857 0-2.4325-1.0496-5.7801-3.5216l-0.0019-0.00135c-2.7674-1.9768-8.8586-6.0114-13.683-8.7794h-1.5e-4c-4.7348-2.8409-10.189-6.2399-12.082-7.5019h-1e-4c-1.7264-1.2227-3.321-2.1008-3.6746-2.1008h-3e-3c-0.03105 3.1e-4 -0.11967 0.00641-0.16905 0.08547h-0.00655c-1e-3 0.00114-2e-3 0.00224-0.0029 0.00334l-2e-4 2.6e-4c-0.21264 0.2497-0.74737 2.1377-1.1971 4.2362h-3e-5c-1.885 7.6928-6.1982 12.878-15.182 18.08-2.0108 1.1173-3.6909 2.2098-3.8469 2.5642-0.0106 0.02405-0.02114 0.05609-0.02114 0.09405 0 1.8138 11.762 17.594 17.507 23.654l9e-4 9.4e-4c10.759 11.155 20.193 16.951 30.278 18.301 0.84036 0.12 1.6652 0.17936 2.465 0.17936 6.6422 0 11.759-4.0675 13.821-11.033h5e-5c1.8281-6.12 1.5859-18.082-0.5499-28.524-1.9786-9.8928-8.0673-28.316-13.129-39.941-1.9106-4.4329-3.9716-8.2591-4.6827-8.3101h3.1e-4c-0.00535-4.4e-4 -0.01535-8e-4 -0.02081-8e-4z"/> <path d="m445.35 881.66c-0.04807 0-0.09013 0.01296-0.12553 0.02996l-8e-5 1e-4c-1.1812 0.5682-5.8029 16.425-5.8029 19.205 0 0.179 0.0163 0.3544 0.08759 0.46724h3e-5c0.00255 0.00406 0.0032 0.00516 0.00793 0.01202l0.0014 0.00204c0.40009 0.5599 3.7235 4.6745 7.4354 9.2552l2e-4 2.4e-4c7.9961 9.8352 9.1931 12.004 8.1523 13.045l-2e-5 1e-4c-0.10471 0.1047-0.20801 0.1474-0.31843 0.1474-0.5111 0-1.3451-0.8458-2.8118-2.8858h-1.9e-4c-1.3495-2.0639-5.9399-7.9201-10.127-13.055-4.1861-5.134-9.5633-11.855-11.932-14.856l-4.3468-5.5322c-0.03047-0.03884-0.07605-0.06274-0.12527-0.06594-0.00372-2e-4 -0.00745-3.5e-4 -0.01117-3.5e-4 -0.04529 0-0.08896 0.01775-0.12153 0.04969l-4.1887 4.1096-0.00119 0.00114c-4.2457 4.2456-13.625 9.685-19.685 11.495h2e-5c-1.7188 0.50135-3.2044 0.95929-3.444 1.1856l-9e-5 1.4e-4c-0.02195 0.02074-0.07828 0.0782-0.07828 0.16606 0 0.00824 3.7e-4 0.0166 0.00113 0.02557 0.07794 0.91097 8.1859 19.158 11.871 26.841l4.2e-4 9.3e-4c11.53 23.692 25.957 39.219 36.511 39.219h0.00198c6.9773-0.08025 14.766-6.7991 21.329-18.344h2e-5l4.0307-7.034 0.0217-0.10703-0.79037-6.5597-1.3e-4 -0.0012c-1.1868-9.3357-3.6391-20.411-6.3294-28.877l-7.6e-4 -0.00235c-1.3409-4.0225-2.9985-10.416-3.7879-14.204h-3e-5l-1.3435-6.8758c-0.0103-0.0528-0.04458-0.0979-0.0927-0.122l-6.6388-3.3193c-3.648-1.8629-6.9048-3.3806-7.323-3.4157l-0.0013-1.4e-4c-0.00853-6.5e-4 -0.013-9.6e-4 -0.02427-9.6e-4z"/> </g> <g fill="#ffd04a"> <path d="m554.14 605.39c-2.6264 0-5.954 0.20236-10.633 0.58172h3.3e-4c-2.8327 0.20724-4.9072 0.59717-4.8854 0.89594 0.00415 0.05707 0.0634 0.0942 0.1336 0.1205h-4e-4c0.63987 0.319 3.6426 1.5039 6.5608 2.5293 2.9227 1.106 7.3444 3.3168 9.8714 4.9752l3e-5 6e-5c10.03 6.5552 22.198 21.487 28.202 34.443h-5e-5c3.1622 6.957 7.5049 19.437 7.5049 21.798 0 0.88594 1.4348 3.0301 3.0925 4.6877l3e-4 2.5e-4c3.5469 3.468 4.4937 6.7752 3.7832 13.011-1.1055 8.7633-10.108 21.077-16.808 22.89-3.412 0.87283-3.5034 0.96508-3.5034 4.3017 0 2.3529 0.30877 3.4335 1.1416 3.4335 3.9801 0 18.924-19.55 21.452-27.923l1e-4 -2e-4c3.5584-12.019 3.6374-29.255 0.079-41.117-6.1668-20.793-20.636-37.796-36.694-43.175h-6e-5c-2.9913-0.99716-5.3558-1.4528-9.2976-1.4528z"/> <path d="m575.2 584.64-5.3742 0.07896h4e-5c-6.9601 0.0793-13.525 1.6609-19.3 4.7462l-1.5e-4 7e-5c-4.7007 2.5429-11.164 7.556-10.717 8.3835 0.0104 0.01926 0.02394 0.03626 0.04066 0.05116h-1.2e-4c0.04176 0.0404 0.11376 0.05424 0.19896 0.05424 0.5852 0 2.3307-0.67761 4.1871-1.7087 1.7983-0.89917 3.2254-1.4302 3.9416-1.4302 0.22943 0 0.37276 0.0542 0.43906 0.15373 0.5433 0.8701 0.17715 1.6317-1.9402 2.955-0.84894 0.53067-1.9701 1.1462-3.4208 1.8942h-6e-5c-2.5259 1.2803-3.8929 2.1012-3.6454 2.5895 0.18225 0.35956 1.2436 0.49121 3.2248 0.49121 1.3497 0 3.1468-0.06275 5.4175-0.16919h-1e-4c5.3771-0.23716 7.754-0.79132 11.158-2.4535h4e-5c4.195-2.0579 10.602-7.9116 14.081-13.052h4e-5l1.7388-2.529-0.0295-0.05511z"/> <path d="m496.74 584.7c-0.9968 0-1.4796 0.21185-1.4796 0.6853 0 1.9154 8.1547 12.832 11.868 15.755h3e-5c4.0373 3.2456 4.3621 3.3268 10.059 3.3268 4.3121 0 5.5762-0.1059 5.5762-0.88626 0-0.12624-0.0334-0.26709-0.0896-0.4245-0.2373-0.71184-0.4724-1.6542-0.4724-2.1227 0-0.57826-1.4493-1.7746-3.1786-2.7965l-7.4e-4 -4.5e-4c-3.0347-1.6938-4.8238-3.9248-4.2673-4.9219 0.0683-0.12237 0.1725-0.22764 0.3163-0.31224l3e-4 -2e-4c0.03575-0.0215 0.08946-0.0338 0.1623-0.0338 0.60044 0 2.2007 0.8189 3.7489 2.0857l0.00276 0.00206h-1.4e-4c1.7052 1.3751 2.6939 1.9942 3.3855 1.9942 0.30354 0 0.54844-0.11866 0.76868-0.3388 0.73919-0.73906 0.38781-1.5592-1.3429-3.3687l-2.7e-4 -3e-4c-3.1686-3.2478-7.6024-5.3044-15.903-7.1227l-0.00125-2e-4 -1e-3 -2e-4h9e-5c-4.6977-1.0067-7.5964-1.5199-9.1513-1.5199z"/> <path d="m534.35 594.15c-1.1132 0-2.6779 0.49952-4.8512 1.4776l-3e-4 1.7e-4c-4.1307 1.9122-5.4007 3.9125-4.0388 6.8545 0.0459 0.09914 0.09759 0.20494 0.1496 0.30639l1.2e-4 2.5e-4c1.1261 2.1584 2.7839 3.2687 4.6292 3.2687 1.273 0 2.6307-0.52864 3.9586-1.5972 2.227-1.6703 3.0972-4.7685 2.4634-8.1749l-2e-4 -9.3e-4c-0.3021-1.4243-0.98364-2.1345-2.3106-2.1345z"/> </g> <g fill="#6d220d"> <path d="m517.93 606.8c-9.9265 0-18.752 4.8866-25.143 14.193l-1e-4 1.6e-4c-4.9087 7.2046-6.6502 13.225-6.6502 23.51 0 5.987 0.31065 9.1899 1.0468 9.9261 0.25543 0.25545 0.47217 0.424 0.6495 0.424 0.3345 0 0.41233-0.5446 0.41233-1.4984 0-2.749 2.8381-11.114 5.6831-16.725l3.1e-4 -6.1e-4c3.1556-6.3902 7.8086-11.199 13.563-13.958l1.9e-4 -1e-4c4.0313-1.9485 10.345-3.7222 12.905-3.7222 0.4508 0 0.7691 0.05511 0.94043 0.16225l0.00103 6e-4c0.3665 0.21996 1.2307 2.2384 1.867 4.5446l1.8e-4 7.4e-4c2.3771 8.2409 13.772 21.45 24.133 28.094l2.5e-4 1e-4c5.2194 3.3215 14.552 7.6725 18.12 8.4654l0.00106 2e-4c2.6453 0.5445 2.7937 0.6622 5.2458 7.623 0.71505 2.0654 2.8546 5.4715 4.7558 7.5311 2.0957 2.3162 3.0589 3.2008 3.906 3.2008 0.3646 0 0.70017-0.1636 1.0797-0.42447l0.0011-7.3e-4 0.00122-8.5e-4c0.79077-0.55355 2.3663-1.5774 3.474-2.2896h-1.2e-4c1.7653-1.1233 2.2426-2.1772 2.6384-5.8958h-7e-5c0.476-3.65 0.1567-5.4787-1.584-10.305-6.6426-18.583-19.77-36.064-33.222-44.214l-2.6e-4 -1e-4c-5.5371-3.3222-13.847-6.2528-17.894-6.3321l-0.00128-5e-5c-1.5724 0-4.964-0.55152-7.4913-1.1834-2.877-0.7535-5.6999-1.1257-8.4387-1.1257z"/> <path d="m603.36 689.58-2.4e-4 9.5e-4 0.0011 1.5e-4 -8.6e-4 -0.0011zm8.6e-4 0.0011 0.0046 0.00585 0.0027-0.00274-4e-3 -0.00266-0.0033-4.5e-4zm0.0046 0.00585-0.0075 0.00746v9.7e-4l0.01553 0.00187-0.00803-0.0103zm0.00803 0.0103 0.04407 0.0565 0.0217-0.02175-0.04843-0.03259-0.01734-0.00216zm0.04407 0.0565-1e-4 1e-4h2e-4l-1e-4 -1e-4zm42.626 90.345-4e-4 9.7e-4 0.0012 2.7e-4 -8e-4 -0.00124zm8e-4 0.00124 6e-3 0.00865 0.0047-0.0047-0.0048-0.00295-0.0059-1e-3zm6e-3 0.00865-0.011 0.01098v9.7e-4l0.0221 0.00404-0.0111-0.01599zm-73.817-184.28c-1.9539 0-2.726 0.52486-4.7384 2.2498l-0.0011 1e-3c-1.5786 1.4207-3.7075 2.9179-4.727 3.3885l-4.3e-4 1.8e-4c-1.2765 0.60071-1.9703 1.0594-1.7514 1.5245 0.21066 0.44765 1.3024 0.83284 3.2631 1.353 12.464 3.4714 28.417 19.734 35.209 36.083 4.5015 10.82 6.0017 18.478 5.8439 30.878v4e-4c-0.03614 7.3744-0.5852 13.142-1.971 18.37l0.0039 0.00265 6e-3 7e-4 -2e-3 0.00196 0.02267 0.0152 0.07213 0.00894-0.0237 0.02365 0.0144 0.00959 15.45-11.696h0.0062c0.1101 0.24613 0.22314 0.48723 0.3371 0.71893l0.00115 0.00226c0.95165 1.7449 3.9588 5.7008 6.7257 8.7839l1.4e-4 1e-4c5.9226 6.5544 8.683 11.446 10.419 18.074 1.4974 5.9111 1.1061 9.771-2.1335 20.991v-1.4e-4c-1.2639 4.3443-2.2942 8.9368-2.2942 10.133 0 3.8187 2.0706 7.3904 7.7608 13.555l5e-5 6e-5c9.9547 10.745 12.614 19.959 7.7394 27.272l-2.5e-4 3e-4c-0.7088 1.08-1.1754 1.8906-1.4214 2.5224l0.0062 0.0037 0.0065 0.00124-0.0017 0.00171 0.0463 0.02789 0.0378 0.0069-0.00993 0.00996 0.0152 0.00914 0.55999-0.64508 0.01117-0.00686c0.21567-0.29887 0.56717-0.49357 0.96381-0.49357 0.09381 0 0.18266 0.01057 0.27002 0.03187l0.07304-0.05744-0.0129 0.03638 2.9486-3.5983 0.01335-0.04114q-0.7314-12.701-3.6469-18.122h-2e-4q-2.4594-5.581-12.456-14.85h-0.00634l-1.066-2.507-0.00236-0.00488q-1.8526-3.4449 0.75066-9.5036l7e-4 -0.0017 0.2172-0.5509 0.0027-0.00866q4.4638-19.757 1.4248-28.351h-3e-4q-2.1008-8.8245-16.842-23.86l-0.07844-0.0057-0.31236 0.2373c-2.1351-4.861-3.4692-12.358-3.4692-20.773v-3e-4c-0.07904-14.707-2.2143-24.912-7.5141-35.748l-1e-4 -2.3e-4c-7.199-14.556-19.228-23.898-32.925-25.323l-8e-4 -5e-5c-1.1864-0.10791-2.0854-0.18091-2.8138-0.18091zm73.828 184.29 0.0376 0.0542 0.03017-0.03014-0.02787-0.01686-0.0399-0.0072zm0.0376 0.0542-2e-4 2.6e-4h3.4e-4l-1.4e-4 -2.6e-4z"/> </g> <g fill="#6d6b68"> <path d="m716.89 701.78c-1.912 0-3.9166 2.6611-18.702 22.491-9.3222 12.482-30.748 41.577-47.657 64.649-16.837 23.002-31.375 42.675-32.24 43.619l-0.00204 0.00225c-0.80621 0.95265-1.5513 1.9146-1.2653 2.1566l1.2e-4 3e-5c0.00427 0.00363 0.0119 0.0095 0.01739 0.0131h-0.00186c0.22507 0.2114 2.2544 1.8499 4.5798 3.7103l4.2665 3.5554 0.11246-0.01424 1.4227-1.9759 2e-4 -2e-4c0.79356-1.1111 13.43-18.171 28.135-38.014v-7e-5c44.541-60.178 69.369-93.938 69.638-94.7l6e-4 -2e-3h-1.4e-4l8.4e-4 -0.0023h2e-4c0.1732-0.4697-1.0122-1.7708-2.4767-2.85h-5e-5c-1.4268-1.1098-3.7288-2.3028-5.0896-2.5438h-2.5e-4c-0.2565-0.053-0.49663-0.0958-0.73907-0.0958z"/> <path d="m587.24 874.89c-0.5432 0-0.91374 0.4064-1.5332 1.1032-0.7185 0.79896-8.8636 11.712-18.105 24.35h-3e-5c-9.2085 12.514-32.126 43.599-50.739 68.758l-105.8 142.79-28.006 37.801-1.8e-4 2e-4c-12.78 17.356-19.068 26.335-19.068 27.726 0 3.3695 2.2606 5.6321 5.1026 5.6321 0.94755 0 1.9558-0.2523 2.9605-0.7948h1.2e-4c1.9254-1.0429 4.7933-4.7152 38.761-50.612h5e-5c16.286-21.979 41.17-55.394 55.323-74.29 38.49-51.373 87.33-117.36 107.72-145.42 9.9561-13.67 18.798-25.67 19.67-26.623 1.6255-1.7069 1.609-1.8411 0.17765-4.8631l-0.00299-0.0059c-0.87446-1.5901-2.6254-3.6637-4.0722-4.4679h-5e-5l-0.0045-0.00256c-1.2068-0.7007-1.8694-1.0784-2.3903-1.0784z"/> </g> <g fill="#585654"> <path d="m740.38 665.29c-2.4882 0-4.9278 3.1654-12.942 13.947l-0.0053 0.00714h5e-5c-10.563 14.126-13.489 18.484-11.879 19.689 0.41854 0.313 1.132 0.4016 2.0564 0.4016 2.0283 0 6.2793 2.4332 9.3614 5.2782h5e-5l2.054 1.9749 0.09558-0.00785 11.539-15.49 1.3e-4 -1.2e-4c6.2484-8.4353 11.432-15.579 11.546-15.894l1.2e-4 -4.5e-4c0.00124-0.00345 0.00544-0.01555 0.00544-0.02875 0-0.9912-6.8334-7.8019-8.8064-8.8289h2e-4l-0.00234-0.00124c-1.1872-0.6147-2.1055-1.045-3.0234-1.045z"/> </g> <g fill="#bdfcff"> <path d="m377 822.53c-1.1559 0-2.3124 0.33174-3.7354 0.95648h6e-5c-1.2058 0.51666-2.0912 0.8335-1.8026 1.5071 0.13879 0.3239 0.58095 0.71694 1.1958 1.2732l1e-4 1.5e-4c2.1686 1.9587 2.0359 4.977-0.43114 7.7082v1e-4c-0.18738 0.20745-0.38586 0.4107-0.59989 0.61376h-3e-5c-2.2224 2.064-2.619 2.9322-2.1076 4.5515l0.00404 0.0115c0.87408 2.2726-0.56919 4.3031-3.1445 5.2936-1.0179 0.3915-2.2016 0.6131-3.4644 0.6131-0.95287 0-1.951-0.1266-2.9525-0.401l-6.7e-4 -2e-4c-0.8593-0.23224-1.506-0.40674-2.0788-0.40674-1.3931 0-2.3119 1.0323-4.999 4.1033h-2e-5c-14.009 15.988-23.034 33.008-28.495 53.902-3.9388 14.968-3.7756 20.131 1.2803 22.985h-2e-5c4.6131 2.6245 18.705 7.055 27.33 8.5584h3e-5c5.4397 0.98499 11.569 1.4834 16.308 1.4834 3.9716 0 7.0942-0.34455 7.8932-1.1436l0.0021-0.00214c2.6658-2.7466 8.8312-27.727 10.803-43.582l9e-5 -6.5e-4c1.1877-9.8189 0.94976-34.73-0.39474-47.701l-1e-4 -9e-4c-1.734-15.999-1.8879-16.529-5.6324-18.646l-0.0013-7.6e-4c-2.0142-1.1189-3.479-1.6759-4.977-1.6759z"/> </g> <g fill="#ff2100"> <path d="m363.48 759.2-0.06112 0.03915-1.5807 5.295 2.2e-4 -6.6e-4 -1.6597 5.2951 0.01569 0.05775 4.2678 3.8727 4.3e-4 4.3e-4c2.839 2.5236 5.2061 5.7582 7.0211 9.3882l1.5e-4 3e-4 2.7661 5.4532 0.04722 0.0304 7.5081 0.3162c2.1126 0.0889 3.6434 0.153 4.7643 0.153 2.876 0 3.1318-0.42444 3.8233-1.9225h-7e-5c1.408-2.8158 3.9865-3.9212 10.308-4.4744l0.00114-1.5e-4c2.8763-0.31094 5.3448-0.8589 5.3448-1.3197 0-0.42432-2.6398-3.3749-5.7057-6.598l-9.7e-4 -9.7e-4c-6.6464-6.6464-13.769-10.603-23.973-13.055h-3e-5c-3.4767-0.86933-7.8276-1.8187-9.5689-2.0561h3.6e-4l-3.3193-0.47412z"/> </g> <g fill="#fff"> <path d="m378.66 791.35c-0.90674 0-1.7268 0.03949-2.3928 0.12274l-4.7e-4 6e-5c-2.2257 0.31787-2.5498 0.64444-2.8673 3.1046l-3e-5 3.4e-4c-0.2186 1.895-0.039 2.6118 0.7731 2.7055 0.06333 0.0073 0.13036 0.0107 0.20116 0.0107 0.70582 0 3.9416 0.8676 7.1044 1.9745 2.8652 1.0027 5.4106 1.6829 5.9836 1.6829 0.05622 0 0.10514-0.00564 0.129-0.02954h-3e-5c0.16641-0.16626 0.48283-2.0784 0.7977-4.2824l9e-5 -8e-4 1.9e-4 -0.00165 3e-5 -2e-4c0.39465-3.7886 0.31979-4.0518-1.4429-4.4524l-4.2e-4 -3e-5c-2.5083-0.52497-5.7412-0.83441-8.2851-0.83441z"/> </g> <g fill="#f00"> <path d="m373.59 799.69-0.0057 6e-4c-3.5121 0.78844-5.4419 1.8456-5.2064 2.8946 0.02317 0.1031 0.06708 0.20506 0.13208 0.3062h-3e-5c0.24613 0.4088 1.2881 0.72326 2.3139 0.72326 2.6796 0 8.2864 1.9729 15.637 5.6086h4e-5l0.00206 0.00104 4.4e-4 2.6e-4c3.2745 1.5627 6.1404 2.7809 6.6601 2.7809 0.0317 0 0.06106-0.00434 0.08108-0.0177l0.00724-0.00727c0.16958-0.25427-0.47907-1.9345-1.5005-3.7418l-1e-4 -1.8e-4c-1.8231-3.1705-2.3058-3.489-9.8143-6.0182h-9e-5c-4.2651-1.4217-8.0633-2.5304-8.3067-2.5304z"/> </g> <g fill="#fff"> <path d="m354.93 758.54c-2.4702 0-5.0795 0.3154-5.7014 0.9372-0.56046 0.5606-0.95606 1.9125-0.95606 3.1008 0 2.4686 3.5721 5.7937 7.212 6.664h3e-5l0.00207 5.6e-4 4e-4 1e-4c0.41155 0.10285 0.74728 0.17274 1.0338 0.17274 1.0432 0 1.4074-0.92984 2.3932-4.3799 0.78876-2.603 1.1896-5.1447 0.94675-5.6306l-0.00165-0.0028c-0.39175-0.5877-2.6219-0.8622-4.9291-0.8622z"/> </g> <path d="m643.87 1473.2c-4.4812 0-8.9546 2.1707-13.567 6.489-3.0004 2.7635-4.4017 3.5326-6.4201 3.5326-3.4125 0-3.4126 0.2112-4.6635 13.268l-0.00861 0.0898c-0.9469 9.5474-0.95826 9.6748 0.89227 11.686l6.1e-4 6e-4c2.4761 2.6357 7.7235 4.2955 16.89 5.2435h-6.7e-4c2.6234 0.2915 5.6686 0.422 8.8847 0.422 13.292 0 29.702-2.2406 29.702-4.7781 0-2.2486-4.0548-9.387-8.8691-15.622-2.7689-3.718-6.4773-8.7675-8.1373-11.297l-9.7e-4 -0.0016c-1.8999-2.7706-4.3586-5.3906-6.4299-6.5859h-6e-5c-2.7764-1.6298-5.5221-2.4467-8.2719-2.4467z"/> <path d="m470.48 1471.3-0.00298 1e-4c-2.0038 0.0802-6.2178 2.631-16.321 9.8137-5.8455 4.1076-15.88 10.192-22.2 13.509l-4.5e-4 2e-4 -0.00275 0.0015h9e-5c-6.3951 3.3162-12.335 6.8783-13.371 7.9148l-0.00115 0.0012-1.7388 1.8179 0.0137 0.1145 1.9758 1.2644h-1.5e-4c1.0451 0.7218 4.611 1.9076 7.771 2.5394h9e-5c2.8994 0.6234 7.3303 0.9274 12.753 0.9274 8.3651 0 19.09-0.7212 30.265-2.1119h7e-5c6.9496-0.8688 19.444-2.2131 27.816-2.8448l0.00147-1e-4 0.00641-6e-4h5.8e-4c8.2913-0.7108 16.12-1.5806 17.391-1.8982l6.1e-4 -1e-4c2.194-0.5689 2.2686-0.8678 2.0316-4.9748-0.07913-2.3743-0.5536-7.7504-1.0278-12.019l-6e-5 -5e-4c-0.07124-0.5968-0.14214-1.2143-0.2002-1.72-0.05204-0.4537-0.09994-0.8705-0.14648-1.2606-0.37066-3.1081-0.62506-4.3433-1.8756-4.3433-0.7131 0-1.7502 0.4091-3.3004 1.0188h4e-5c-0.34034 0.1338-0.81208 0.319-1.2171 0.4747h-1.3e-4c-2.0431 0.7895-8.5648 1.253-13.714 1.253-3.5888 0-6.4021-0.2316-6.6642-0.6685l-0.00104-0.0016c-1.122-1.763-9.2058-6.3525-13.08-7.539l-0.0034-0.0011-0.00157-5e-4c-2.3641-0.709-4.6681-1.2666-5.1552-1.2666z"/> <g fill="#fff"> <path d="m515.7 1504.6c-0.24249 0-0.51975 0.1453-0.82849 0.432l-0.00372 0.0041-0.00164 0.0022h-1.3e-4c-0.20563 0.2269-6.7941 0.9357-14.676 1.5662h-3.1e-4c-7.9211 0.713-21.875 2.1319-31.139 3.1614h-1.5e-4c-11.378 1.3197-21.235 1.979-29.267 1.979-9.7689 0-16.818-0.9759-20.585-2.9242h-7e-5c-1.0092-0.5191-1.7305-0.8-2.1939-0.8-0.44493 0-0.651 0.2587-0.651 0.7776 0 0.4459 0.1506 1.0929 0.43054 1.9561h3e-5c1.4652 4.6389 11.219 7.07 25.513 7.07 8.9746 0 19.756-0.9589 31.425-2.9394h-3e-5c5.1371-0.8694 15.961-2.0546 24.102-2.687h-6e-5c0.01895-0.0015 0.0363-0.0027 0.0521-0.0039h0.00152c-3.4e-4 0 0.04736-0.0037 0.19858-0.0152 18.534-1.3958 18.586-1.4123 18.586-4.7901v-0.0423c0-1.7564-0.3245-2.7465-0.96195-2.7465z"/> <path d="m620.32 1511.7c-0.53047 0-0.9729 0.5774-0.9729 1.544 0 4.6946 6.2015 7.6181 19.153 8.9606 2.8595 0.3003 5.8189 0.4403 8.7478 0.4403 13.252 0 26.061-2.8601 27.559-6.703l2e-4 -4e-4 5.4e-4 -0.0014 1.2e-4 -4e-4c0.38594-1.0812 0.64148-2.2142 0.38831-2.401h-7.7e-4c-0.0316-0.0316-0.11636-0.0391-0.2238-0.0391-0.76384 0-3.5156 0.4496-6.6796 1.1375h-2.5e-4c-4.7704 0.9774-12.875 1.4716-20.81 1.4716-8.0925 0-16.011-0.5142-20.035-1.5502l-2.6e-4 -1e-4c-3.1693-0.7924-5.9134-1.7372-6.1456-2.1194-0.281-0.4997-0.64086-0.739-0.98003-0.739z"/> </g> <g fill="#ffb68e"> <path d="m650.86 1452.5c-1.0986 0-2.7498 0.2402-5.0295 0.7343l-1e-3 2e-4c-1.7312 0.3934-8.1975 0.9459-14.366 1.1832l-0.00115 1e-4c-5.9995 0.3036-10.994 0.7526-11.348 1.1021h4e-5c-0.02069 0.0203-0.04494 0.0541-0.04494 0.1 0 0.2656 0.366 2.7689 0.83955 6.0115l0.34705 2.3797v3e-4c0.6319 4.2658 1.1844 9.8725 1.1844 12.315 0 2.9276 0.19444 4.5522 1.3508 4.5522 0.97869 0 2.6078-1.2233 5.2881-3.5313 5.6015-4.8124 7.8759-5.907 13.224-6.3789l0.00275-2e-4 0.0062-8e-4h2e-4c0.8767-0.0794 1.645-0.1234 2.3538-0.1234 2.0871 0 3.6563 0.3827 5.888 1.3811h3e-5c1.8366 0.8474 3.571 1.4551 3.9891 1.4551 0.02594 0 0.05494-0.0024 0.0791-0.0093l1e-4 -1e-4c0.0194-0.0055 0.04873-0.017 0.0711-0.0433h-0.0014c0.0152-0.0156 0.0249-0.0347 0.0298-0.0469l1.4e-4 -4e-4c0.1438-0.3579-0.25678-4.6726-0.87254-9.7524v-3e-4c-0.633-5.1433-1.1847-9.8746-1.1847-10.42 0-0.6354-0.64467-0.907-1.8043-0.907z"/> <path d="m512.68 1448-17.861 1e-4c-10.938 0-17.774 0.2907-18.161 0.7988h-6e-5c-0.01459 0.0192-0.0271 0.0439-0.03172 0.0712h-0.0018c-0.16637 0.4708-0.4792 3.1422-0.78926 5.9327l-2.2e-4 0.0022c-0.39452 4.4978-1.1048 8.2071-2.4465 12.785h-2e-5c-0.3497 1.0572 0.74907 1.7166 3.7724 2.7247l0.00338 0.0011h1.5e-4c2.205 0.7879 6.3823 2.9943 9.2242 4.889h6e-5l5.2153 3.5558 0.05774 0.0166 7.9032-0.3162h4e-4c5.3699-0.2369 8.8697-0.7894 10.631-1.7499h-3e-5l2.529-1.3435 0.05087-0.0846v-27.188c0-0.0254-0.01013-0.0498-0.02807-0.0678-0.01795-0.0179-0.0423-0.0279-0.0677-0.0279z"/> </g> <g fill="#fff"> <path d="m612.11 781.34c-0.0244 0-0.0451 0.0046-0.0637 0.0107h-4e-5c-1.3653 0.44956-16.066 29.832-20.754 41.24-3.638 8.8577-6.5661 19.063-7.2792 25.402-0.35786 3.0675-0.51076 4.4252 0.04264 4.4898h-3.4e-4c0.01494 0.00175 0.02654 0.0023 0.04094 0.0023 0.2462 0 0.5823-0.2642 0.98005-0.5918h-5e-5c0.8069-0.64544 2.3156-2.5546 3.3457-4.297h-7e-5c2.601-4.0986 11.834-13.327 14.969-14.894l0.00318-0.0016c1.5845-0.8533 3.187-1.2619 4.7533-1.2619 1.4501 0 2.873 0.35043 4.2251 1.0265h-1e-4l2.21 1.1839c0.018 0.00958 0.0373 0.01424 0.0565 0.01424 0.0371 0 0.07335-0.01723 0.0966-0.0489l12.724-17.308 3e-4 -4e-4c9.519-13.059 12.605-17.729 12.189-18.995h-4e-5c-1.1257-3.6183-8.0613-8.4569-17.298-12.246l-3.4e-4 -1e-4c-5.0398-2.0474-9.6567-3.7234-10.24-3.7234z"/> <path d="m359.76 773.53c-0.50035 0-1.6919 2.5654-2.7136 5.6304l-1.6e-4 4.5e-4c-0.94757 3.0006-3.3184 8.533-5.1356 12.246h-3e-5c-1.765 3.5301-3.0495 6.533-2.7713 6.6721 0.00942 0.0047 0.01984 0.00693 0.03034 0.00693 1.4432 0 10.303-10.85 12.749-15.426l2e-4 -4e-4 2.6081-5.0581-0.0047-0.03216-1.8968-1.9758-4e-4 -4e-4c-1.1029-1.1029-2.3767-2.063-2.865-2.063z"/> </g> </svg>